<?xml version="1.0" encoding="UTF-8"?>
<svg id="Capa_1" data-name="Capa 1" xmlns="http://www.w3.org/2000/svg" viewBox="0 0 800 574.89">
  <defs>
    <style>
      .cls-1 {
        fill: #fff;
        stroke-width: 0px;
      }
    </style>
  </defs>
  <path class="cls-1" d="m763.21,88h-13.31v-38.36c0-4.55-2.63-8.69-6.74-10.62-108.97-51.28-233.71-52.01-343.16-2.27C290.55-12.98,165.81-12.25,56.84,39.02c-4.12,1.94-6.74,6.08-6.74,10.62v38.36h-13.31C16.5,88,0,104.51,0,124.79v413.31c0,20.29,16.5,36.79,36.79,36.79h726.42c20.29,0,36.79-16.5,36.79-36.79V124.79c0-20.29-16.5-36.79-36.79-36.79Zm-351.47,174.52V57.18c100.41-44.94,214.26-44.94,314.68,0v42.52s0,.03,0,.05,0,.03,0,.05v382.68c-50.47-21.07-103.91-31.61-157.34-31.61s-106.87,10.54-157.34,31.61v-219.95Zm-75.15-224.18c17.51,5.02,34.78,11.27,51.66,18.83v183.45l-19.32-12.88c-3.95-2.63-9.08-2.63-13.03,0l-19.32,12.88V38.35ZM73.58,99.78s0-.02,0-.03,0-.02,0-.03v-42.54c76.03-34.03,159.76-42.27,239.53-24.77v51.44c-41.91-8.62-84.66-10.61-127.32-5.87-6.45.72-11.09,6.52-10.37,12.97.72,6.44,6.52,11.09,12.97,10.37,41.81-4.65,83.72-2.45,124.73,6.52v76.22c-24.91-5.11-50.32-7.93-75.74-8.33-6.49-.12-11.82,5.07-11.93,11.55-.1,6.48,5.07,11.82,11.55,11.93,25.57.4,51.12,3.39,76.11,8.84v26.08c-67.93-13.95-138.38-10.4-204.69,10.43-6.19,1.94-9.63,8.53-7.68,14.72,1.58,5.02,6.21,8.23,11.2,8.23,1.17,0,2.35-.18,3.52-.54,64.04-20.12,132.18-23.13,197.65-8.83v4.42c0,4.33,2.38,8.31,6.2,10.35,3.82,2.04,8.45,1.82,12.05-.58l31.06-20.71,25.83,17.22v213.63c-50.47-21.07-103.91-31.61-157.34-31.61s-106.87,10.54-157.34,31.61V99.78h0Zm277.1,451.63H36.79c-7.34,0-13.31-5.97-13.31-13.31V124.79c0-7.34,5.97-13.31,13.31-13.31h13.31v401.57c0,6.48,5.26,11.74,11.74,11.74h288.85v26.61Zm-260.99-50.1c90.96-35.9,191.5-35.91,282.46,0H89.69Zm336.14,50.1h-51.66v-26.61h51.66v26.61Zm284.48-50.1h-282.46c90.96-35.9,191.5-35.9,282.46,0Zm66.21,36.79c0,7.34-5.97,13.31-13.31,13.31h-313.89v-26.61h288.85c6.48,0,11.74-5.26,11.74-11.74V111.49h13.31c7.34,0,13.31,5.97,13.31,13.31v413.31Z"/>
  <path class="cls-1" d="m485.26,384.9c-13,2.72-26.01,6.12-38.68,10.1-6.19,1.94-9.63,8.54-7.68,14.72,1.58,5.02,6.21,8.23,11.2,8.23,1.17,0,2.35-.18,3.52-.54,11.94-3.75,24.21-6.96,36.46-9.52,6.35-1.33,10.41-7.55,9.08-13.9-1.33-6.35-7.56-10.41-13.9-9.08Z"/>
  <path class="cls-1" d="m688.07,417.95c4.99,0,9.62-3.21,11.2-8.23,1.94-6.19-1.5-12.78-7.68-14.72-50.21-15.77-102.28-21.67-154.75-17.52-6.46.51-11.29,6.17-10.78,12.63s6.16,11.29,12.63,10.78c49.46-3.91,98.53,1.64,145.86,16.51,1.17.37,2.36.54,3.52.54Z"/>
  <path class="cls-1" d="m450.09,367.71c1.17,0,2.35-.18,3.52-.54,75.54-23.73,155.39-23.73,230.93,0,6.19,1.94,12.78-1.5,14.72-7.68,1.94-6.19-1.5-12.78-7.68-14.72-80.14-25.18-164.86-25.18-245,0-6.19,1.94-9.63,8.53-7.68,14.72,1.58,5.01,6.21,8.23,11.2,8.23Z"/>
  <path class="cls-1" d="m450.09,317.75c1.17,0,2.35-.18,3.52-.54,43.34-13.62,88.31-19.43,133.7-17.28,6.49.3,11.98-4.7,12.28-11.17.31-6.48-4.7-11.98-11.17-12.28-48.15-2.28-95.87,3.89-141.85,18.33-6.19,1.94-9.63,8.54-7.68,14.72,1.58,5.02,6.21,8.23,11.2,8.23Z"/>
  <path class="cls-1" d="m691.58,294.81c-16.85-5.29-34.2-9.53-51.59-12.59-6.39-1.13-12.47,3.14-13.6,9.53-1.13,6.39,3.14,12.48,9.53,13.6,16.39,2.89,32.75,6.88,48.62,11.87,1.17.37,2.36.54,3.52.54,4.99,0,9.62-3.21,11.2-8.23,1.94-6.19-1.49-12.78-7.68-14.72Z"/>
  <path class="cls-1" d="m450.09,267.51c1.17,0,2.35-.18,3.52-.54,75.54-23.73,155.39-23.73,230.93,0,6.19,1.94,12.78-1.5,14.72-7.68,1.94-6.19-1.5-12.78-7.68-14.72-80.14-25.18-164.86-25.18-245,0-6.19,1.94-9.63,8.53-7.68,14.72,1.58,5.01,6.21,8.23,11.2,8.23Z"/>
  <path class="cls-1" d="m523.96,178.17c-26.19,2.91-52.23,8.39-77.38,16.29-6.19,1.94-9.63,8.53-7.68,14.72,1.58,5.02,6.21,8.23,11.2,8.23,1.17,0,2.35-.18,3.52-.54,23.7-7.45,48.24-12.61,72.93-15.36,6.45-.72,11.09-6.52,10.37-12.97s-6.53-11.09-12.96-10.37Z"/>
  <path class="cls-1" d="m575.16,199.21c37.14.59,73.94,6.53,109.38,17.66,1.17.37,2.36.54,3.52.54,4.99,0,9.62-3.21,11.2-8.23,1.94-6.19-1.5-12.78-7.68-14.72-37.6-11.81-76.64-18.12-116.05-18.74-6.46-.12-11.82,5.07-11.93,11.55s5.07,11.82,11.56,11.92Z"/>
  <path class="cls-1" d="m611.62,151.56c6.44.72,12.25-3.93,12.97-10.37.72-6.45-3.93-12.25-10.37-12.97-56.75-6.3-113.16-.82-167.63,16.29-6.19,1.94-9.63,8.54-7.68,14.72,1.58,5.02,6.21,8.23,11.2,8.23,1.17,0,2.35-.18,3.52-.54,51.35-16.13,104.5-21.3,158-15.35Z"/>
  <path class="cls-1" d="m691.58,144.51c-8.48-2.66-17.16-5.08-25.79-7.18-6.31-1.53-12.65,2.33-14.19,8.63-1.53,6.3,2.33,12.65,8.63,14.19,8.13,1.98,16.31,4.26,24.31,6.77,1.17.37,2.36.54,3.52.54,4.99,0,9.62-3.21,11.2-8.23,1.94-6.19-1.5-12.78-7.68-14.72Z"/>
  <path class="cls-1" d="m450.09,117.22c1.17,0,2.35-.18,3.52-.54,7.99-2.51,16.16-4.79,24.3-6.77,6.3-1.53,10.16-7.89,8.63-14.19s-7.89-10.16-14.19-8.63c-8.63,2.1-17.3,4.52-25.78,7.18-6.19,1.94-9.63,8.54-7.68,14.72,1.58,5.02,6.21,8.23,11.2,8.23Z"/>
  <path class="cls-1" d="m526.54,101.32c53.5-5.94,106.66-.78,158,15.36,1.17.37,2.36.54,3.52.54,4.99,0,9.62-3.21,11.2-8.23,1.94-6.19-1.5-12.78-7.68-14.72-54.48-17.12-110.88-22.6-167.63-16.29-6.45.72-11.09,6.52-10.37,12.97.72,6.44,6.52,11.09,12.97,10.37Z"/>
  <path class="cls-1" d="m147.1,384.9c-13,2.72-26.01,6.12-38.68,10.1-6.19,1.94-9.63,8.54-7.68,14.72,1.58,5.02,6.21,8.23,11.2,8.23,1.17,0,2.35-.18,3.52-.54,11.94-3.75,24.21-6.96,36.46-9.52,6.35-1.33,10.41-7.55,9.08-13.9s-7.56-10.41-13.9-9.08Z"/>
  <path class="cls-1" d="m349.91,417.95c4.99,0,9.62-3.21,11.2-8.23,1.94-6.19-1.5-12.78-7.68-14.72-50.21-15.77-102.28-21.67-154.75-17.52-6.46.51-11.29,6.17-10.78,12.63s6.16,11.29,12.63,10.78c49.46-3.91,98.53,1.64,145.86,16.51,1.17.37,2.36.54,3.52.54Z"/>
  <path class="cls-1" d="m111.93,367.71c1.17,0,2.35-.18,3.52-.54,75.54-23.73,155.39-23.73,230.93,0,6.19,1.94,12.78-1.5,14.72-7.68,1.94-6.19-1.5-12.78-7.68-14.72-80.14-25.18-164.86-25.18-245,0-6.19,1.94-9.63,8.53-7.68,14.72,1.58,5.01,6.21,8.23,11.2,8.23Z"/>
  <path class="cls-1" d="m111.93,317.75c1.17,0,2.35-.18,3.52-.54,43.34-13.62,88.31-19.43,133.7-17.28,6.51.3,11.98-4.7,12.28-11.17.31-6.48-4.7-11.98-11.17-12.28-48.15-2.28-95.87,3.89-141.85,18.33-6.19,1.94-9.63,8.54-7.68,14.72,1.58,5.02,6.21,8.23,11.2,8.23Z"/>
  <path class="cls-1" d="m297.76,305.34c16.39,2.89,32.75,6.88,48.62,11.87,1.17.37,2.36.54,3.52.54,4.99,0,9.62-3.21,11.2-8.23,1.94-6.19-1.5-12.78-7.68-14.72-16.85-5.29-34.2-9.53-51.59-12.59-6.39-1.13-12.48,3.14-13.6,9.53-1.12,6.38,3.14,12.47,9.53,13.6Z"/>
  <path class="cls-1" d="m185.8,178.17c-26.19,2.91-52.23,8.39-77.38,16.29-6.19,1.94-9.63,8.53-7.68,14.72,1.58,5.02,6.21,8.23,11.2,8.23,1.17,0,2.35-.18,3.52-.54,23.7-7.45,48.24-12.61,72.93-15.36,6.45-.72,11.09-6.52,10.37-12.97-.71-6.44-6.53-11.09-12.96-10.37Z"/>
  <path class="cls-1" d="m100.74,159.24c1.58,5.02,6.21,8.23,11.2,8.23,1.17,0,2.35-.18,3.52-.54,51.35-16.13,104.5-21.3,158-15.36,6.44.72,12.25-3.93,12.97-10.37.72-6.45-3.93-12.25-10.37-12.97-56.76-6.3-113.16-.82-167.63,16.29-6.19,1.95-9.63,8.54-7.68,14.72Z"/>
  <path class="cls-1" d="m111.93,117.22c1.17,0,2.35-.18,3.52-.54,7.99-2.51,16.16-4.79,24.3-6.77,6.3-1.53,10.16-7.89,8.63-14.19s-7.89-10.16-14.19-8.63c-8.63,2.1-17.3,4.52-25.78,7.18-6.19,1.94-9.63,8.54-7.68,14.72,1.58,5.02,6.21,8.23,11.2,8.23Z"/>
</svg>