<svg height="60" preserveAspectRatio="xMidYMid meet" viewBox="0 0 45 44.999999" width="60" xmlns="http://www.w3.org/2000/svg" xmlns:xlink="http://www.w3.org/1999/xlink" zoomAndPan="magnify"><clipPath id="a"><path d="m4.5 4.5h36.75v36.75h-36.75zm0 0"/></clipPath><g clip-path="url(#a)"><path d="m22.832031 4.5c-10.125 0-18.332031 8.207031-18.332031 18.332031 0 10.128907 8.207031 18.335938 18.332031 18.335938 10.128907 0 18.335938-8.207031 18.335938-18.335938 0-10.125-8.207031-18.332031-18.335938-18.332031zm-11.171875 9.566406h22.324219c.054687-.003906.09375.023438.117187.074219.019532.054687.007813.097656-.03125.136719l-7.503906 7.121094-.011718.015624-2.242188 2.125c-.214844.207032-.464844.363282-.742188.472657-.277343.113281-.5625.167969-.863281.164062-.296875 0-.585937-.058593-.863281-.171875-.273438-.113281-.519531-.273437-.734375-.480468l-2.074219-2.011719c-.003906-.003907-.007812-.007813-.011718-.011719l-7.449219-7.222656c-.039063-.039063-.050781-.085938-.03125-.136719.023437-.050781.0625-.078125.117187-.074219zm-1.054687 16.304688v-15.320313c0-.054687.027343-.09375.078125-.113281.050781-.023438.09375-.015625.132812.023438l7.082032 6.867187c.054687.050781.058593.109375.007812.167969l-7.082031 8.457031c-.035157.042969-.082031.054687-.136719.035156s-.082031-.058593-.082031-.117187zm23.609375 1.230468h-22.761719c-.050781 0-.089844-.023437-.113281-.070312-.019532-.046875-.015625-.089844.019531-.128906l7.269531-8.683594c.054688-.066406.117188-.070312.179688-.007812l1.589844 1.542968c.640624.621094 1.410156.9375 2.300781.9375h.019531c.886719.003906 1.652344-.300781 2.292969-.914062l1.761719-1.671875c.0625-.058594.121093-.054688.179687.011719l7.355469 8.785156c.035156.039062.039062.082031.015625.128906-.019531.046875-.058594.070312-.109375.070312zm.847656-1.230468c0 .058594-.027344.097656-.082031.117187-.054688.019531-.101563.007813-.136719-.039062l-7.160156-8.546875c-.050782-.058594-.046875-.117188.011718-.167969l7.15625-6.796875c.039063-.035156.085938-.042969.132813-.023438.050781.023438.074219.058594.078125.113282zm0 0" fill="#fff"/></g></svg>