<svg xmlns="http://www.w3.org/2000/svg" xmlns:xlink="http://www.w3.org/1999/xlink" width="60" zoomAndPan="magnify" viewBox="0 0 45 44.999999" height="60" preserveAspectRatio="xMidYMid meet" version="1.0"><defs><clipPath id="fd10dbf2bc"><path d="M 15 18 L 30 18 L 30 39.414062 L 15 39.414062 Z M 15 18 " clip-rule="nonzero"/></clipPath><clipPath id="bad7b9adcd"><path d="M 6 18 L 23 18 L 23 39.414062 L 6 39.414062 Z M 6 18 " clip-rule="nonzero"/></clipPath><clipPath id="9c3b3f5bd0"><path d="M 4.164062 18 L 23 18 L 23 39.414062 L 4.164062 39.414062 Z M 4.164062 18 " clip-rule="nonzero"/></clipPath><clipPath id="0e1e05faf1"><path d="M 6 5.664062 L 16 5.664062 L 16 19 L 6 19 Z M 6 5.664062 " clip-rule="nonzero"/></clipPath><clipPath id="492a30574c"><path d="M 22 18 L 39 18 L 39 39.414062 L 22 39.414062 Z M 22 18 " clip-rule="nonzero"/></clipPath><clipPath id="7a55284f5c"><path d="M 22 18 L 40.914062 18 L 40.914062 39.414062 L 22 39.414062 Z M 22 18 " clip-rule="nonzero"/></clipPath><clipPath id="99a5bb4da8"><path d="M 29 5.664062 L 39 5.664062 L 39 19 L 29 19 Z M 29 5.664062 " clip-rule="nonzero"/></clipPath></defs><g clip-path="url(#fd10dbf2bc)"><path fill="#ffffff" d="M 22.5 39.328125 L 29.199219 18.714844 L 15.804688 18.714844 Z M 22.5 39.328125 " fill-opacity="1" fill-rule="nonzero"/></g><g clip-path="url(#bad7b9adcd)"><path fill="#ffffff" d="M 22.5 39.328125 L 15.804688 18.714844 L 6.417969 18.714844 Z M 22.5 39.328125 " fill-opacity="1" fill-rule="nonzero"/></g><g clip-path="url(#9c3b3f5bd0)"><path fill="#ffffff" d="M 6.417969 18.714844 L 4.382812 24.980469 C 4.195312 25.550781 4.398438 26.175781 4.886719 26.527344 L 22.5 39.328125 Z M 6.417969 18.714844 " fill-opacity="1" fill-rule="nonzero"/></g><g clip-path="url(#0e1e05faf1)"><path fill="#ffffff" d="M 6.417969 18.714844 L 15.804688 18.714844 L 11.769531 6.300781 C 11.5625 5.664062 10.65625 5.664062 10.449219 6.300781 Z M 6.417969 18.714844 " fill-opacity="1" fill-rule="nonzero"/></g><g clip-path="url(#492a30574c)"><path fill="#ffffff" d="M 22.5 39.328125 L 29.199219 18.714844 L 38.582031 18.714844 Z M 22.5 39.328125 " fill-opacity="1" fill-rule="nonzero"/></g><g clip-path="url(#7a55284f5c)"><path fill="#ffffff" d="M 38.582031 18.714844 L 40.617188 24.980469 C 40.804688 25.550781 40.601562 26.175781 40.117188 26.527344 L 22.5 39.328125 Z M 38.582031 18.714844 " fill-opacity="1" fill-rule="nonzero"/></g><g clip-path="url(#99a5bb4da8)"><path fill="#ffffff" d="M 38.582031 18.714844 L 29.199219 18.714844 L 33.230469 6.300781 C 33.4375 5.664062 34.34375 5.664062 34.550781 6.300781 Z M 38.582031 18.714844 " fill-opacity="1" fill-rule="nonzero"/></g></svg>