<svg xmlns="http://www.w3.org/2000/svg" xmlns:xlink="http://www.w3.org/1999/xlink" width="793" zoomAndPan="magnify" viewBox="0 0 594.95996 842.24997" height="1122" preserveAspectRatio="xMidYMid meet" version="1.0"><defs><clipPath id="ee673fa56a"><path d="M 114.753906 12 L 480 12 L 480 829.460938 L 114.753906 829.460938 Z M 114.753906 12 " clip-rule="nonzero"/></clipPath></defs><g clip-path="url(#ee673fa56a)"><path fill="#000000" d="M 478.84375 193.433594 L 464.914062 162.917969 L 472.4375 143.054688 C 473.320312 140.808594 473 138.328125 471.558594 136.324219 L 459.386719 119.183594 L 454.984375 66.164062 C 454.824219 64.078125 453.785156 62.238281 452.101562 60.957031 L 387.976562 13.621094 C 386.214844 12.339844 384.054688 11.9375 381.972656 12.417969 C 379.890625 12.898438 378.128906 14.339844 377.25 16.261719 L 364.28125 43.015625 L 341.304688 41.332031 C 338.101562 41.09375 335.140625 43.015625 334.019531 46.058594 L 324.652344 71.6875 L 313.84375 71.367188 C 313.765625 71.367188 313.683594 71.367188 313.605469 71.367188 C 310.800781 71.367188 308.238281 73.050781 307.039062 75.613281 L 260.84375 179.335938 L 246.273438 181.257812 C 242.914062 181.738281 240.269531 184.542969 240.03125 187.90625 L 236.667969 242.929688 L 215.613281 275.289062 C 213.933594 277.851562 214.09375 281.296875 216.011719 283.699219 L 225.539062 295.632812 L 221.457031 309.730469 L 191.757812 305.882812 C 188.953125 305.484375 186.152344 306.84375 184.628906 309.328125 L 161.175781 348.574219 C 160.535156 349.695312 160.132812 350.976562 160.132812 352.257812 L 160.613281 444.527344 C 160.613281 445.730469 160.933594 446.851562 161.496094 447.890625 L 176.226562 475.125 L 160.054688 485.777344 C 157.730469 487.296875 156.449219 490.101562 156.929688 492.824219 L 163.496094 536.234375 L 136.195312 563.066406 C 134.515625 564.75 133.714844 567.152344 134.195312 569.472656 L 138.039062 590.300781 L 132.511719 601.351562 L 124.828125 597.988281 C 122.585938 597.027344 120.023438 597.265625 118.023438 598.546875 C 116.019531 599.910156 114.820312 602.152344 114.820312 604.554688 L 114.820312 639.078125 C 114.820312 641.640625 116.179688 643.960938 118.34375 645.242188 L 130.671875 652.453125 L 125.148438 683.609375 C 124.90625 684.96875 125.066406 686.414062 125.628906 687.695312 L 154.609375 756.09375 L 145.082031 768.109375 C 143.800781 769.710938 143.320312 771.710938 143.640625 773.636719 L 150.6875 819.527344 C 151.167969 822.734375 153.808594 825.214844 157.011719 825.617188 L 193.996094 829.460938 C 194.238281 829.460938 194.476562 829.460938 194.71875 829.460938 C 196.480469 829.460938 198.160156 828.820312 199.441406 827.699219 L 210.089844 818.328125 C 212.25 816.40625 213.050781 813.363281 212.089844 810.636719 L 208.085938 799.023438 L 228.023438 783.40625 L 258.605469 786.53125 C 261.964844 786.851562 265.007812 784.929688 266.128906 781.722656 L 291.667969 707.398438 C 291.90625 706.835938 291.988281 706.195312 292.066406 705.554688 L 296.472656 641.480469 L 343.785156 608 C 346.105469 606.398438 347.226562 603.59375 346.667969 600.792969 L 344.347656 588.296875 L 359.398438 569.394531 C 361.558594 566.589844 361.476562 562.746094 359.078125 560.105469 L 317.367188 514.050781 L 310.082031 441.484375 L 347.546875 369.078125 L 423.203125 293.390625 C 425.683594 290.90625 426.003906 286.820312 423.84375 284.019531 L 410.875 266.878906 L 420.5625 233.640625 L 475.800781 202.722656 C 479.003906 200.882812 480.363281 196.796875 478.84375 193.433594 Z M 191.195312 313.894531 L 221.058594 317.820312 C 224.578125 318.300781 227.863281 316.136719 228.902344 312.691406 L 233.304688 297.472656 C 233.945312 295.230469 233.464844 292.828125 232.023438 290.988281 L 222.578125 279.214844 L 239.46875 253.34375 L 295.351562 315.015625 L 288.625 332.554688 L 270.933594 338.484375 C 270.453125 338.644531 270.132812 338.964844 269.972656 339.445312 C 269.8125 339.925781 269.890625 340.40625 270.210938 340.804688 L 299.59375 379.730469 L 282.941406 391.503906 L 241.070312 394.226562 C 240.671875 394.226562 240.269531 394.46875 240.03125 394.789062 C 239.789062 395.109375 239.628906 395.511719 239.710938 395.992188 L 243.152344 417.777344 C 243.234375 418.175781 243.394531 418.496094 243.792969 418.738281 C 244.035156 418.898438 244.355469 419.058594 244.675781 419.058594 C 244.753906 419.058594 244.835938 419.058594 244.914062 419.058594 L 256.683594 417.136719 L 248.117188 441.402344 L 235.066406 438.921875 C 234.265625 438.761719 233.546875 439.242188 233.304688 440.042969 L 229.144531 456.300781 L 207.367188 456.300781 L 186.230469 417.617188 C 185.992188 417.214844 185.589844 416.894531 185.109375 416.816406 L 168.378906 414.332031 L 168.058594 352.738281 Z M 183.589844 472 L 168.621094 444.289062 L 168.460938 417.136719 L 183.992188 419.457031 L 205.207031 458.304688 C 205.445312 458.785156 206.007812 459.105469 206.488281 459.105469 L 230.105469 459.105469 L 250.117188 463.671875 L 279.5 503.636719 L 271.734375 519.816406 C 271.492188 520.375 271.574219 521.097656 272.054688 521.5 L 291.585938 541.203125 L 278.9375 549.929688 L 266.128906 544.886719 C 265.570312 544.644531 264.929688 544.804688 264.449219 545.285156 L 252.519531 558.179688 L 242.433594 547.367188 C 242.113281 547.046875 241.792969 546.886719 241.3125 546.886719 L 224.019531 546.886719 L 195.277344 520.136719 L 174.304688 485.855469 L 181.109375 481.371094 C 184.390625 479.367188 185.429688 475.285156 183.589844 472 Z M 295.03125 542.644531 C 295.03125 542.644531 295.03125 542.5625 295.03125 542.644531 C 295.03125 542.5625 295.03125 542.5625 295.03125 542.644531 L 302.554688 535.113281 L 312.164062 542.484375 L 290.707031 565.550781 C 290.386719 565.871094 290.226562 566.351562 290.308594 566.832031 L 293.347656 585.652344 L 266.609375 593.101562 L 254.441406 560.824219 L 266.128906 548.25 L 278.699219 553.214844 C 279.179688 553.375 279.660156 553.375 280.140625 553.054688 L 294.871094 542.882812 C 294.871094 542.722656 294.949219 542.644531 295.03125 542.644531 Z M 288.625 640.519531 L 286.625 669.59375 L 269.171875 664.867188 C 268.449219 664.625 267.652344 665.027344 267.410156 665.746094 L 262.046875 679.445312 L 247.476562 685.449219 L 233.707031 683.046875 L 235.386719 666.46875 C 235.46875 665.828125 235.066406 665.1875 234.507812 664.945312 L 217.773438 657.898438 L 229.222656 630.667969 L 258.042969 615.769531 L 289.746094 637.3125 C 289.027344 638.277344 288.707031 639.398438 288.625 640.519531 Z M 241.871094 760.097656 L 214.09375 761.539062 L 200.082031 757.296875 C 199.839844 757.214844 199.601562 757.214844 199.28125 757.296875 L 180.628906 761.539062 L 176.707031 742.796875 L 186.871094 730.0625 L 198.402344 728.460938 L 208.566406 735.992188 C 208.96875 736.3125 209.449219 736.390625 209.929688 736.230469 C 210.410156 736.070312 210.730469 735.75 210.890625 735.269531 L 215.453125 722.613281 L 248.355469 719.25 L 258.765625 734.546875 Z M 247.957031 716.289062 L 214.253906 719.730469 C 213.691406 719.8125 213.210938 720.132812 212.972656 720.691406 L 208.726562 732.304688 L 199.679688 725.578125 C 199.363281 725.339844 198.960938 725.257812 198.5625 725.339844 L 186.390625 727.019531 L 171.582031 717.25 L 195.4375 680.726562 L 207.765625 678.804688 C 208.246094 678.722656 208.726562 678.402344 208.886719 677.921875 L 216.492188 660.621094 L 232.265625 667.269531 L 230.582031 684.089844 C 230.503906 684.890625 231.0625 685.609375 231.785156 685.691406 L 246.433594 688.253906 L 251.640625 704.433594 Z M 256.84375 612.964844 L 228.421875 627.703125 L 219.375 615.128906 L 219.375 588.054688 L 224.898438 549.851562 L 240.832031 549.851562 L 251.398438 561.144531 L 264.128906 594.785156 Z M 169.339844 541.683594 C 170.941406 540.078125 171.742188 537.757812 171.421875 535.515625 L 164.9375 492.183594 L 171.980469 487.539062 L 193.035156 521.898438 C 193.117188 521.980469 193.195312 522.140625 193.277344 522.21875 L 222.019531 548.96875 L 216.414062 587.734375 C 216.414062 587.816406 216.414062 587.894531 216.414062 587.976562 L 216.414062 613.925781 L 180.546875 611.285156 L 153.890625 589.417969 C 153.648438 589.179688 153.328125 589.097656 153.007812 589.097656 L 145.804688 588.695312 L 142.039062 568.59375 Z M 122.746094 638.675781 L 122.746094 605.917969 L 130.03125 609.121094 C 133.554688 610.644531 137.636719 609.121094 139.316406 605.757812 L 145.324219 593.742188 C 145.644531 593.101562 145.882812 592.382812 145.964844 591.660156 L 152.367188 592.0625 L 179.027344 613.925781 C 179.265625 614.085938 179.585938 614.246094 179.828125 614.246094 L 216.972656 616.96875 L 226.179688 629.785156 L 214.253906 658.140625 L 206.40625 676 L 194.238281 677.921875 C 193.835938 678.003906 193.4375 678.242188 193.195312 678.5625 L 168.941406 715.726562 L 149.886719 705.234375 L 146.683594 688.574219 C 146.601562 688.015625 146.125 687.535156 145.644531 687.375 L 133.234375 683.929688 L 138.597656 653.414062 C 139.078125 650.449219 137.71875 647.488281 135.15625 645.964844 Z M 134.113281 687.292969 L 143.960938 690.015625 L 147.082031 706.4375 C 147.164062 706.835938 147.402344 707.238281 147.804688 707.476562 L 168.699219 718.929688 L 183.832031 728.941406 L 173.902344 741.4375 C 173.664062 741.757812 173.503906 742.238281 173.582031 742.636719 L 177.503906 761.699219 L 160.695312 761.058594 L 161.09375 760.578125 C 162.695312 758.496094 163.09375 755.695312 162.054688 753.289062 Z M 200.402344 800.945312 L 204.40625 812.640625 L 194.476562 821.449219 L 158.453125 817.6875 L 151.566406 772.753906 L 158.53125 764.023438 L 179.425781 764.824219 C 179.507812 764.824219 179.667969 764.824219 179.746094 764.824219 L 199.523438 760.339844 L 211.691406 764.023438 L 206.085938 775.15625 C 205.847656 775.636719 205.847656 776.199219 206.167969 776.679688 L 212.171875 785.570312 L 202.644531 793.015625 C 200.320312 794.859375 199.363281 798.0625 200.402344 800.945312 Z M 258.84375 778.441406 L 228.582031 775.316406 C 226.742188 775.15625 224.898438 775.636719 223.457031 776.839844 L 214.652344 783.726562 L 209.289062 775.71875 L 214.894531 764.503906 L 242.351562 763.0625 L 260.367188 774.035156 Z M 261.324219 771.152344 L 244.835938 761.058594 L 261.804688 735.269531 C 262.125 734.789062 262.125 734.066406 261.804688 733.585938 L 250.757812 717.328125 L 254.601562 704.832031 C 254.679688 704.511719 254.679688 704.191406 254.601562 703.953125 L 249.398438 687.773438 L 263.648438 681.925781 C 264.046875 681.765625 264.289062 681.445312 264.449219 681.125 L 269.570312 668.070312 L 286.304688 672.554688 L 284.0625 704.753906 Z M 291.746094 635.070312 L 259.886719 613.445312 L 266.851562 596.144531 L 294.710938 588.375 L 308.320312 600.390625 L 315.203125 618.574219 Z M 337.941406 583.570312 C 336.660156 585.171875 336.101562 587.335938 336.5 589.339844 L 338.820312 601.753906 L 317.6875 616.730469 L 310.960938 598.949219 C 310.882812 598.710938 310.722656 598.546875 310.5625 598.386719 L 297.59375 586.933594 L 315.203125 576.203125 L 328.414062 574.679688 C 328.816406 574.601562 329.214844 574.441406 329.453125 574.039062 L 343.625 554.738281 L 352.832031 564.910156 Z M 341.464844 552.496094 L 327.292969 571.796875 L 314.402344 573.238281 C 314.164062 573.238281 314.003906 573.320312 313.765625 573.480469 L 295.992188 584.292969 L 293.1875 567.070312 L 315.285156 543.363281 C 315.605469 543.042969 315.683594 542.644531 315.683594 542.242188 C 315.683594 541.84375 315.445312 541.441406 315.125 541.203125 L 304.476562 532.792969 L 312.964844 520.9375 Z M 310.960938 518.695312 L 301.273438 532.152344 L 293.988281 539.4375 L 275.015625 520.214844 L 282.703125 504.117188 C 282.941406 503.636719 282.863281 502.996094 282.542969 502.597656 L 252.28125 461.425781 C 252.039062 461.105469 251.71875 460.945312 251.398438 460.867188 L 232.183594 456.460938 L 235.867188 441.964844 L 248.757812 444.449219 C 249.476562 444.609375 250.199219 444.207031 250.4375 443.484375 L 259.804688 416.894531 L 307.359375 429.390625 L 302.875 438.039062 C 302.234375 439.320312 301.996094 440.683594 302.074219 442.042969 L 309.519531 515.089844 C 309.679688 516.453125 310.160156 517.652344 310.960938 518.695312 Z M 341.785156 363.550781 C 341.222656 364.113281 340.824219 364.671875 340.503906 365.3125 L 308.800781 426.667969 L 259.324219 413.609375 C 259.246094 413.609375 259.246094 413.609375 259.164062 413.609375 C 259.164062 413.609375 259.085938 413.609375 259.085938 413.609375 C 259.003906 413.609375 259.003906 413.609375 258.925781 413.609375 C 258.84375 413.609375 258.84375 413.609375 258.765625 413.609375 L 246.035156 415.773438 L 243.074219 397.113281 L 283.742188 394.46875 C 283.980469 394.46875 284.300781 394.386719 284.542969 394.226562 L 302.796875 381.332031 C 303.117188 381.09375 303.355469 380.773438 303.4375 380.371094 C 303.515625 379.972656 303.355469 379.570312 303.117188 379.25 L 273.894531 340.566406 L 290.308594 335.117188 C 290.707031 334.957031 291.105469 334.636719 291.265625 334.238281 L 297.992188 316.535156 L 321.6875 324.226562 C 322.007812 324.304688 322.328125 324.304688 322.648438 324.226562 L 341.703125 318.058594 L 360.917969 344.410156 Z M 417.039062 288.265625 L 363 342.328125 L 343.386719 315.496094 C 342.984375 314.933594 342.34375 314.773438 341.703125 314.933594 L 322.089844 321.261719 L 297.914062 313.332031 L 241.230469 250.699219 L 243.554688 247.09375 C 244.195312 246.054688 244.59375 244.851562 244.675781 243.652344 L 247.957031 189.105469 L 262.285156 187.183594 C 264.769531 186.863281 266.929688 185.261719 267.890625 183.019531 L 270.132812 177.972656 L 303.4375 196.15625 L 365.882812 250.140625 C 366.121094 250.378906 366.523438 250.539062 366.84375 250.539062 C 366.921875 250.539062 366.921875 250.539062 367.003906 250.539062 C 367.402344 250.460938 367.800781 250.300781 368.042969 249.898438 L 379.570312 234.199219 L 408.3125 246.453125 L 402.867188 265.035156 C 402.226562 267.199219 402.707031 269.601562 404.070312 271.363281 Z M 416.398438 226.832031 C 414.714844 227.792969 413.515625 229.234375 413.035156 231.078125 L 409.433594 243.570312 L 379.890625 230.996094 C 379.25 230.757812 378.53125 230.917969 378.128906 231.476562 L 366.84375 246.855469 L 305.519531 193.832031 C 305.4375 193.753906 305.359375 193.671875 305.277344 193.671875 L 271.574219 175.332031 L 314.242188 79.457031 L 325.050781 79.777344 C 328.09375 79.859375 330.976562 78.015625 332.015625 75.054688 L 341.382812 49.421875 L 364.28125 51.105469 C 367.242188 51.34375 369.964844 49.742188 371.246094 47.101562 L 384.054688 20.75 L 447.058594 67.363281 L 451.460938 120.304688 C 451.542969 121.585938 452.023438 122.789062 452.742188 123.832031 L 464.753906 140.808594 L 457.308594 160.511719 C 456.667969 162.277344 456.667969 164.277344 457.46875 166.039062 L 471.238281 196.234375 Z M 416.398438 226.832031 " fill-opacity="1" fill-rule="nonzero"/></g><path fill="#000000" d="M 305.4375 718.128906 C 304.316406 715.40625 301.753906 713.644531 298.871094 713.644531 C 298.871094 713.644531 298.871094 713.644531 298.792969 713.644531 C 295.910156 713.644531 293.269531 715.328125 292.148438 718.050781 L 275.578125 757.375 C 275.097656 758.578125 274.855469 759.9375 275.097656 761.21875 L 276.296875 769.070312 C 276.777344 772.351562 279.339844 774.757812 282.542969 775.15625 C 282.863281 775.15625 283.101562 775.238281 283.421875 775.238281 C 286.382812 775.238281 288.945312 773.472656 290.066406 770.671875 L 307.199219 727.660156 C 307.917969 725.898438 307.917969 724.054688 307.199219 722.292969 Z M 299.511719 721.171875 Z M 283.742188 764.90625 L 283.023438 760.257812 L 298.714844 722.933594 L 299.59375 725.015625 Z M 283.742188 764.90625 " fill-opacity="1" fill-rule="nonzero"/><path fill="#000000" d="M 366.042969 669.191406 L 355.074219 669.191406 C 352.832031 669.191406 350.671875 670.234375 349.390625 672.074219 L 332.65625 694.179688 C 331.617188 695.542969 331.136719 697.144531 331.214844 698.828125 L 332.976562 735.992188 C 333.058594 738.152344 334.820312 739.835938 336.980469 739.835938 C 337.058594 739.835938 337.140625 739.835938 337.140625 739.835938 C 337.300781 739.835938 337.460938 739.835938 337.621094 739.753906 C 338.980469 739.996094 340.34375 739.515625 341.304688 738.394531 L 364.519531 711.640625 C 365.320312 710.761719 365.800781 709.71875 366.121094 708.519531 L 373.167969 678.003906 C 373.648438 675.839844 373.167969 673.675781 371.804688 671.914062 C 370.285156 670.234375 368.203125 669.191406 366.042969 669.191406 Z M 358.195312 706.597656 L 340.421875 727.019531 L 339.140625 698.746094 L 355.472656 677.203125 L 365 677.203125 Z M 358.195312 706.597656 " fill-opacity="1" fill-rule="nonzero"/></svg>