<svg xmlns="http://www.w3.org/2000/svg" xmlns:xlink="http://www.w3.org/1999/xlink" width="793" zoomAndPan="magnify" viewBox="0 0 594.95996 842.24997" height="1122" preserveAspectRatio="xMidYMid meet" version="1.0"><defs><clipPath id="885aded7ff"><path d="M 99.097656 8.058594 L 496.242188 8.058594 L 496.242188 833.074219 L 99.097656 833.074219 Z M 99.097656 8.058594 " clip-rule="nonzero"/></clipPath></defs><path fill="#231f20" d="M 338.484375 696.785156 C 335.929688 696.785156 333.914062 698.875 333.914062 701.351562 C 333.914062 702.050781 334.070312 702.667969 334.378906 703.289062 L 310.992188 717.765625 C 310.140625 716.683594 308.824219 716.0625 307.429688 716.0625 C 304.871094 716.0625 302.859375 718.15625 302.859375 720.632812 C 302.859375 722.953125 304.640625 724.890625 306.886719 725.199219 L 306.652344 748.042969 C 304.332031 748.273438 302.550781 750.210938 302.550781 752.609375 C 302.550781 755.164062 304.640625 757.175781 307.117188 757.175781 C 309.675781 757.175781 311.6875 755.085938 311.6875 752.609375 C 311.6875 751.449219 311.222656 750.363281 310.527344 749.511719 L 327.410156 730.234375 C 328.183594 730.699219 329.035156 731.007812 329.964844 731.007812 C 332.519531 731.007812 334.535156 728.917969 334.535156 726.4375 C 334.535156 724.582031 333.449219 723.03125 331.902344 722.335938 L 337.476562 705.921875 C 337.789062 706 338.097656 706 338.40625 706 C 340.960938 706 342.976562 703.90625 342.976562 701.429688 C 342.976562 698.953125 340.960938 696.785156 338.484375 696.785156 Z M 307.660156 748.042969 L 307.894531 725.199219 C 309.597656 725.046875 311.066406 723.882812 311.6875 722.335938 L 317.652344 723.882812 L 325.472656 725.898438 C 325.472656 726.128906 325.394531 726.285156 325.394531 726.515625 C 325.394531 727.679688 325.859375 728.761719 326.558594 729.613281 L 309.675781 748.894531 C 309.054688 748.429688 308.359375 748.117188 307.660156 748.042969 Z M 330.894531 721.949219 C 330.585938 721.871094 330.273438 721.871094 329.964844 721.871094 C 328.027344 721.871094 326.324219 723.109375 325.707031 724.8125 L 311.921875 721.25 C 311.921875 721.019531 311.996094 720.863281 311.996094 720.632812 C 311.996094 719.933594 311.84375 719.316406 311.53125 718.695312 L 334.921875 704.21875 C 335.386719 704.761719 335.929688 705.148438 336.472656 705.457031 Z M 330.894531 721.949219 " fill-opacity="1" fill-rule="nonzero"/><g clip-path="url(#885aded7ff)"><path fill="#231f20" d="M 491.828125 241.132812 L 486.5625 178.03125 C 488.652344 177.566406 490.203125 175.785156 490.203125 173.539062 C 490.203125 170.984375 488.113281 168.972656 485.632812 168.972656 C 485.402344 168.972656 485.246094 168.972656 485.011719 169.046875 L 458.757812 69.089844 C 460.386719 68.394531 461.546875 66.769531 461.546875 64.832031 C 461.546875 62.277344 459.457031 60.265625 456.976562 60.265625 C 455.816406 60.265625 454.808594 60.652344 454.035156 61.347656 L 396.957031 15.125 C 397.421875 14.429688 397.652344 13.578125 397.652344 12.648438 C 397.652344 10.09375 395.5625 8.078125 393.085938 8.078125 C 390.527344 8.078125 388.515625 10.171875 388.515625 12.648438 C 388.515625 14.273438 389.367188 15.746094 390.683594 16.519531 L 372.871094 56.703125 C 372.484375 56.546875 372.019531 56.472656 371.554688 56.472656 C 369.695312 56.472656 368.148438 57.554688 367.371094 59.105469 L 330.429688 47.101562 C 330.507812 46.792969 330.507812 46.484375 330.507812 46.171875 C 330.507812 43.617188 328.417969 41.605469 325.9375 41.605469 C 323.382812 41.605469 321.367188 43.695312 321.367188 46.171875 C 321.367188 47.878906 322.296875 49.347656 323.691406 50.121094 L 310.914062 83.570312 C 310.527344 83.492188 310.214844 83.414062 309.828125 83.414062 C 308.433594 83.414062 307.195312 84.035156 306.34375 85.042969 L 285.277344 71.257812 C 285.589844 70.640625 285.742188 69.945312 285.742188 69.246094 C 285.742188 66.691406 283.652344 64.679688 281.175781 64.679688 C 278.617188 64.679688 276.605469 66.769531 276.605469 69.246094 C 276.605469 70.71875 277.300781 72.035156 278.386719 72.886719 L 254.378906 112.605469 C 253.835938 112.371094 253.136719 112.21875 252.519531 112.21875 C 249.964844 112.21875 247.949219 114.308594 247.949219 116.785156 C 247.949219 119.339844 250.039062 121.355469 252.519531 121.355469 C 252.828125 121.355469 253.136719 121.355469 253.449219 121.277344 L 263.824219 152.867188 C 262.277344 153.5625 261.191406 155.191406 261.191406 157.046875 C 261.191406 158.132812 261.578125 159.0625 262.121094 159.835938 L 211.316406 210.160156 C 210.542969 209.542969 209.535156 209.15625 208.453125 209.15625 C 205.894531 209.15625 203.882812 211.246094 203.882812 213.722656 C 203.882812 216.046875 205.664062 217.980469 207.910156 218.292969 L 207.753906 267.765625 C 205.507812 268 203.726562 269.933594 203.726562 272.335938 C 203.726562 273.804688 204.425781 275.121094 205.507812 275.972656 L 184.289062 311.511719 C 183.746094 311.28125 183.125 311.125 182.429688 311.125 C 179.875 311.125 177.859375 313.214844 177.859375 315.695312 C 177.859375 318.25 179.953125 320.261719 182.429688 320.261719 C 183.050781 320.261719 183.667969 320.105469 184.210938 319.875 L 198.769531 345.347656 C 197.6875 346.199219 196.910156 347.515625 196.910156 348.988281 L 164.925781 352.472656 C 164.460938 350.457031 162.601562 348.910156 160.433594 348.910156 C 157.878906 348.910156 155.867188 351 155.867188 353.476562 C 155.867188 355.257812 156.871094 356.730469 158.265625 357.503906 L 134.414062 418.824219 C 134.023438 418.746094 133.636719 418.671875 133.25 418.671875 C 130.695312 418.671875 128.679688 420.761719 128.679688 423.238281 C 128.679688 425.640625 130.460938 427.574219 132.785156 427.808594 L 134.023438 487.734375 C 131.78125 488.042969 130.074219 489.980469 130.074219 492.304688 C 130.074219 494.859375 132.167969 496.871094 134.644531 496.871094 C 135.730469 496.871094 136.734375 496.484375 137.511719 495.863281 L 150.753906 509.027344 C 150.132812 509.800781 149.824219 510.808594 149.824219 511.8125 C 149.824219 513.128906 150.367188 514.292969 151.21875 515.144531 L 138.90625 531.402344 C 138.207031 531.015625 137.433594 530.785156 136.582031 530.785156 C 134.023438 530.785156 132.011719 532.875 132.011719 535.351562 C 132.011719 537.90625 134.101562 539.917969 136.582031 539.917969 C 137.046875 539.917969 137.589844 539.84375 137.976562 539.6875 L 145.101562 554.941406 C 143.785156 555.714844 142.933594 557.1875 142.933594 558.8125 C 142.933594 560.28125 143.628906 561.597656 144.789062 562.449219 L 124.730469 596.828125 C 124.191406 596.59375 123.570312 596.441406 122.949219 596.441406 C 120.394531 596.441406 118.382812 598.53125 118.382812 601.007812 C 118.382812 603.253906 119.929688 605.035156 122.019531 605.5 L 118.921875 642.433594 C 117.605469 642.507812 116.367188 643.128906 115.59375 644.058594 L 111.722656 641.582031 C 112.03125 640.960938 112.183594 640.265625 112.183594 639.566406 C 112.183594 637.011719 110.09375 635 107.617188 635 C 105.136719 635 102.96875 637.089844 102.96875 639.644531 C 102.96875 641.65625 104.207031 643.285156 105.988281 643.980469 L 104.132812 651.878906 C 103.976562 651.878906 103.820312 651.878906 103.667969 651.878906 C 101.109375 651.878906 99.097656 653.96875 99.097656 656.445312 C 99.097656 658.921875 101.1875 661.015625 103.667969 661.015625 C 103.820312 661.015625 104.054688 661.015625 104.207031 661.015625 L 111.101562 689.351562 C 109.398438 689.972656 108.15625 691.675781 108.15625 693.609375 C 108.15625 696.164062 110.25 698.179688 112.726562 698.179688 C 113.113281 698.179688 113.503906 698.101562 113.8125 698.023438 L 129.921875 739.757812 C 128.449219 740.53125 127.519531 742.078125 127.519531 743.78125 C 127.519531 746.335938 129.609375 748.351562 132.089844 748.351562 C 132.320312 748.351562 132.554688 748.351562 132.707031 748.273438 L 142.15625 783.347656 C 140.453125 784.042969 139.292969 785.671875 139.292969 787.605469 C 139.292969 790.160156 141.382812 792.175781 143.859375 792.175781 C 144.09375 792.175781 144.324219 792.175781 144.558594 792.097656 L 153.15625 823.53125 C 151.449219 824.226562 150.289062 825.855469 150.289062 827.789062 C 150.289062 830.34375 152.378906 832.359375 154.859375 832.359375 C 157.183594 832.359375 159.117188 830.65625 159.429688 828.410156 L 183.902344 828.953125 C 184.132812 831.273438 186.070312 833.054688 188.46875 833.054688 C 191.027344 833.054688 193.039062 830.964844 193.039062 828.488281 C 193.039062 826.164062 191.335938 824.304688 189.089844 823.917969 L 189.398438 810.988281 C 191.722656 810.757812 193.582031 808.820312 193.582031 806.421875 C 193.582031 805.414062 193.273438 804.5625 192.730469 803.789062 L 205.042969 792.636719 C 205.820312 793.335938 206.902344 793.800781 208.0625 793.800781 C 210.234375 793.800781 212.015625 792.328125 212.554688 790.316406 L 234.007812 792.792969 C 234.007812 795.347656 236.101562 797.363281 238.578125 797.363281 C 241.132812 797.363281 243.148438 795.269531 243.148438 792.792969 C 243.148438 791.167969 242.296875 789.695312 240.980469 788.84375 L 248.183594 773.050781 C 248.644531 773.203125 249.109375 773.28125 249.574219 773.28125 C 252.132812 773.28125 254.144531 771.191406 254.144531 768.714844 C 254.144531 766.855469 253.0625 765.230469 251.433594 764.53125 L 262.199219 729.769531 C 262.433594 729.847656 262.742188 729.847656 263.050781 729.847656 C 265.605469 729.847656 267.621094 727.753906 267.621094 725.277344 C 267.621094 723.03125 266.070312 721.175781 263.902344 720.785156 L 267.621094 672.007812 C 270.023438 671.929688 272.035156 669.917969 272.035156 667.441406 C 272.035156 666.898438 271.957031 666.355469 271.804688 665.890625 L 310.757812 646.535156 C 311.609375 647.773438 313.003906 648.625 314.632812 648.625 C 317.1875 648.625 319.199219 646.535156 319.199219 644.058594 C 319.199219 642.742188 318.65625 641.582031 317.730469 640.726562 L 336.933594 614.636719 C 337.632812 615.023438 338.328125 615.253906 339.179688 615.253906 C 341.738281 615.253906 343.75 613.164062 343.75 610.6875 C 343.75 608.132812 341.660156 606.117188 339.179688 606.117188 C 338.792969 606.117188 338.40625 606.195312 338.097656 606.273438 L 331.050781 587.613281 C 332.519531 586.839844 333.527344 585.292969 333.527344 583.589844 C 333.527344 581.03125 331.4375 579.019531 328.957031 579.019531 C 327.796875 579.019531 326.789062 579.40625 326.015625 580.105469 L 283.496094 540.769531 C 284.039062 539.996094 284.347656 539.066406 284.347656 538.0625 C 284.347656 535.972656 282.957031 534.191406 280.941406 533.648438 L 291.707031 461.488281 C 291.785156 461.488281 291.785156 461.488281 291.863281 461.488281 C 294.417969 461.488281 296.429688 459.394531 296.429688 456.917969 C 296.429688 455.679688 295.964844 454.597656 295.191406 453.746094 L 342.976562 396.449219 C 343.671875 396.914062 344.523438 397.222656 345.453125 397.222656 C 348.011719 397.222656 350.023438 395.132812 350.023438 392.65625 C 350.023438 392.578125 350.023438 392.421875 350.023438 392.34375 L 374.652344 387.46875 C 375.195312 389.324219 376.976562 390.71875 379.066406 390.71875 C 381.621094 390.71875 383.636719 388.628906 383.636719 386.152344 C 383.636719 384.679688 382.9375 383.285156 381.777344 382.511719 L 410.664062 336.675781 C 411.285156 336.984375 411.902344 337.140625 412.601562 337.140625 C 415.15625 337.140625 417.171875 335.050781 417.171875 332.574219 C 417.171875 330.015625 415.078125 328.003906 412.601562 328.003906 C 411.980469 328.003906 411.363281 328.160156 410.742188 328.390625 L 401.292969 311.589844 C 402.378906 310.738281 403.074219 309.421875 403.074219 307.949219 C 403.074219 306.402344 402.378906 305.085938 401.214844 304.234375 L 436.378906 242.214844 C 436.917969 242.449219 437.539062 242.605469 438.160156 242.605469 C 440.25 242.605469 442.03125 241.132812 442.574219 239.195312 L 487.027344 245.625 C 487.027344 245.625 487.027344 245.699219 487.027344 245.699219 C 487.027344 248.253906 489.117188 250.269531 491.597656 250.269531 C 494.074219 250.269531 496.164062 248.179688 496.164062 245.699219 C 496.242188 243.222656 494.308594 241.210938 491.828125 241.132812 Z M 183.976562 828.023438 L 159.503906 827.480469 C 159.429688 826.9375 159.273438 826.472656 159.117188 826.007812 L 166.320312 821.519531 L 185.605469 809.515625 C 186.300781 810.367188 187.308594 810.988281 188.546875 811.144531 L 188.238281 824.074219 C 185.992188 824.226562 184.289062 825.933594 183.976562 828.023438 Z M 314.785156 639.488281 C 313.933594 639.488281 313.160156 639.722656 312.460938 640.109375 L 271.261719 585.679688 C 271.957031 584.980469 272.5 584.050781 272.578125 583.046875 L 324.464844 583.976562 C 324.621094 585.757812 325.859375 587.226562 327.410156 587.769531 L 315.171875 639.488281 C 315.09375 639.488281 314.941406 639.488281 314.785156 639.488281 Z M 345.609375 387.855469 C 344.988281 387.855469 344.371094 388.007812 343.75 388.242188 L 337.941406 378.410156 L 315.792969 340.78125 C 316.875 339.929688 317.574219 338.613281 317.574219 337.140625 C 317.574219 336.832031 317.574219 336.519531 317.496094 336.210938 L 394.324219 309.964844 C 394.632812 310.582031 395.019531 311.125 395.5625 311.511719 L 347.46875 388.242188 C 347.003906 388.007812 346.304688 387.855469 345.609375 387.855469 Z M 127.441406 602.246094 L 212.089844 614.171875 C 212.089844 614.171875 212.089844 614.25 212.089844 614.25 C 212.089844 615.179688 212.402344 616.03125 212.867188 616.726562 L 167.480469 654.664062 C 166.628906 653.890625 165.546875 653.425781 164.382812 653.425781 C 163.609375 653.425781 162.835938 653.660156 162.136719 653.96875 L 126.125 604.339844 C 126.746094 603.875 127.210938 603.097656 127.441406 602.246094 Z M 314.167969 86.824219 L 367.527344 63.441406 C 368.300781 64.753906 369.773438 65.683594 371.398438 65.683594 L 378.757812 138.699219 C 377.90625 138.851562 377.128906 139.316406 376.511719 139.9375 L 313.703125 90.460938 C 314.089844 89.765625 314.398438 88.988281 314.398438 88.0625 C 314.398438 87.675781 314.320312 87.285156 314.167969 86.824219 Z M 301 225.726562 C 300.457031 225.726562 299.992188 225.800781 299.527344 225.957031 L 268.242188 160.917969 C 269.480469 160.066406 270.332031 158.671875 270.332031 157.046875 L 375.347656 144.351562 C 375.503906 145.046875 375.890625 145.742188 376.355469 146.285156 L 303.632812 226.578125 C 302.859375 226.035156 302.007812 225.726562 301 225.726562 Z M 220.300781 679.441406 L 217.433594 618.816406 C 218.132812 618.660156 218.828125 618.429688 219.449219 617.964844 L 263.128906 663.492188 L 264.136719 664.574219 C 263.515625 665.351562 263.128906 666.355469 263.128906 667.519531 C 263.128906 667.828125 263.128906 668.136719 263.207031 668.523438 L 224.171875 682.074219 C 223.398438 680.601562 222.003906 679.597656 220.300781 679.441406 Z M 168.179688 655.59375 L 213.5625 617.65625 C 214.335938 618.351562 215.265625 618.816406 216.351562 618.894531 L 219.214844 679.519531 C 217.898438 679.75 216.738281 680.527344 216.117188 681.609375 L 168.722656 659.542969 C 168.875 659.078125 168.953125 658.613281 168.953125 658.148438 C 168.875 657.21875 168.644531 656.367188 168.179688 655.59375 Z M 168.179688 660.550781 L 192.574219 671.929688 L 215.578125 682.617188 C 215.421875 683.082031 215.34375 683.546875 215.34375 684.007812 C 215.34375 684.472656 215.421875 684.9375 215.578125 685.402344 L 175.925781 703.367188 C 175.148438 702.050781 173.679688 701.199219 171.972656 701.199219 C 171.898438 701.199219 171.820312 701.199219 171.820312 701.199219 L 165.546875 662.5625 C 166.707031 662.175781 167.636719 661.480469 168.179688 660.550781 Z M 176.386719 704.371094 L 216.042969 686.410156 C 216.816406 687.648438 218.132812 688.5 219.605469 688.578125 L 221.925781 733.949219 C 220.84375 734.105469 219.835938 734.722656 219.214844 735.496094 L 176.15625 707.78125 C 176.464844 707.160156 176.621094 706.464844 176.621094 705.765625 C 176.621094 705.300781 176.542969 704.835938 176.386719 704.371094 Z M 217.28125 609.757812 L 217.511719 569.109375 L 217.589844 547.273438 C 218.675781 547.121094 219.605469 546.65625 220.300781 545.957031 L 264.136719 580.027344 C 263.75 580.722656 263.515625 581.496094 263.515625 582.347656 C 263.515625 583.046875 263.671875 583.664062 263.980469 584.285156 L 220.300781 611.460938 C 219.527344 610.53125 218.441406 609.914062 217.28125 609.757812 Z M 206.207031 349.21875 L 308.667969 338.226562 C 308.824219 339 309.210938 339.617188 309.675781 340.160156 L 258.636719 396.757812 C 257.863281 396.21875 257.011719 395.90625 256.003906 395.90625 C 254.917969 395.90625 253.835938 396.292969 253.0625 396.992188 L 205.277344 351.851562 C 205.820312 351.078125 206.207031 350.148438 206.207031 349.21875 Z M 178.09375 435.625 C 179.5625 435.625 180.878906 434.929688 181.734375 433.847656 L 220.921875 457.074219 L 225.335938 459.707031 C 225.101562 460.25 224.949219 460.867188 224.949219 461.566406 C 224.949219 462.339844 225.101562 463.035156 225.414062 463.65625 L 157.878906 508.871094 C 157.414062 508.328125 156.871094 507.941406 156.253906 507.632812 L 177.394531 435.550781 C 177.550781 435.625 177.859375 435.625 178.09375 435.625 Z M 217.203125 538.140625 C 217.125 538.140625 217.125 538.140625 217.046875 538.140625 C 215.421875 538.140625 214.027344 538.992188 213.175781 540.230469 L 158.730469 513.363281 C 158.886719 512.898438 158.964844 512.355469 158.964844 511.8125 C 158.964844 511.039062 158.808594 510.34375 158.5 509.722656 L 226.03125 464.507812 C 226.652344 465.203125 227.347656 465.667969 228.277344 465.898438 L 220.457031 516.925781 Z M 230.832031 457.152344 C 230.445312 456.996094 229.980469 456.996094 229.515625 456.996094 C 228.046875 456.996094 226.730469 457.691406 225.878906 458.777344 L 190.792969 438.027344 L 182.273438 432.996094 C 182.507812 432.453125 182.660156 431.832031 182.660156 431.136719 C 182.660156 430.75 182.585938 430.363281 182.507812 429.976562 L 251.898438 402.796875 C 252.285156 403.574219 252.90625 404.113281 253.601562 404.578125 L 233.777344 450.335938 Z M 300.921875 234.859375 L 312.074219 332.726562 C 311.066406 332.960938 310.214844 333.5 309.519531 334.351562 L 286.984375 320.417969 L 212.402344 274.347656 C 212.632812 273.730469 212.867188 273.109375 212.867188 272.414062 C 212.867188 271.949219 212.789062 271.484375 212.632812 271.019531 L 297.128906 232.691406 C 297.902344 234.007812 299.296875 234.859375 300.921875 234.859375 Z M 201.636719 353.710938 C 202.71875 353.710938 203.804688 353.324219 204.578125 352.625 L 252.363281 397.765625 C 251.820312 398.539062 251.433594 399.46875 251.433594 400.476562 C 251.433594 400.863281 251.511719 401.25 251.589844 401.636719 L 182.195312 428.8125 C 181.734375 427.882812 180.878906 427.1875 179.953125 426.800781 L 200.9375 353.632812 C 201.09375 353.710938 201.328125 353.710938 201.636719 353.710938 Z M 154.394531 516.460938 C 156.019531 516.460938 157.414062 515.609375 158.265625 514.367188 L 212.710938 541.160156 C 212.554688 541.621094 212.480469 542.164062 212.480469 542.707031 C 212.480469 542.863281 212.480469 543.015625 212.480469 543.171875 L 151.914062 557.261719 C 151.375 555.871094 150.210938 554.785156 148.816406 554.398438 L 154.316406 516.382812 C 154.316406 516.460938 154.394531 516.460938 154.394531 516.460938 Z M 264.910156 663.800781 L 220.222656 617.191406 C 220.84375 616.417969 221.230469 615.410156 221.230469 614.25 C 221.230469 613.550781 221.074219 612.933594 220.765625 612.3125 L 264.445312 585.136719 C 265.140625 586.066406 266.226562 586.683594 267.464844 586.839844 L 267.078125 662.871094 C 266.304688 663.027344 265.53125 663.335938 264.910156 663.800781 Z M 268.085938 577.78125 C 266.847656 577.78125 265.683594 578.324219 264.832031 579.175781 L 220.996094 545.105469 C 221.386719 544.488281 221.617188 543.714844 221.617188 542.9375 L 275.367188 538.835938 C 275.675781 540.382812 276.757812 541.625 278.152344 542.164062 L 268.703125 577.78125 C 268.550781 577.78125 268.316406 577.78125 268.085938 577.78125 Z M 259.410156 397.53125 L 261.96875 394.746094 L 310.449219 340.933594 C 311.222656 341.476562 312.074219 341.785156 313.082031 341.785156 C 313.703125 341.785156 314.320312 341.632812 314.941406 341.398438 L 342.820312 388.863281 C 341.738281 389.636719 341.039062 390.953125 341.039062 392.34375 L 260.496094 399.625 C 260.339844 398.773438 259.953125 398.074219 259.410156 397.53125 Z M 394.015625 308.957031 L 317.1875 335.207031 C 316.414062 333.65625 314.863281 332.648438 313.082031 332.648438 L 302.007812 234.785156 C 302.859375 234.550781 303.554688 234.164062 304.175781 233.621094 L 394.554688 305.628906 C 394.089844 306.324219 393.859375 307.175781 393.859375 308.027344 C 393.9375 308.339844 393.9375 308.648438 394.015625 308.957031 Z M 438.234375 233.390625 C 437.539062 233.390625 436.917969 233.542969 436.300781 233.777344 L 382.628906 146.75 C 383.25 146.285156 383.714844 145.667969 384.023438 144.96875 L 481.0625 172.765625 C 481.0625 172.996094 480.984375 173.230469 480.984375 173.460938 C 480.984375 174.777344 481.527344 175.941406 482.457031 176.792969 L 440.480469 233.933594 C 439.785156 233.621094 439.011719 233.390625 438.234375 233.390625 Z M 379.917969 138.699219 L 372.5625 65.683594 C 374.34375 65.296875 375.8125 63.828125 376.046875 61.96875 L 452.332031 64.910156 C 452.332031 65.917969 452.640625 66.847656 453.183594 67.542969 L 382.550781 139.625 C 381.855469 139.007812 380.925781 138.699219 379.917969 138.699219 Z M 208.375 276.902344 C 209.769531 276.824219 211.007812 276.207031 211.78125 275.199219 L 308.976562 335.28125 C 308.746094 335.824219 308.589844 336.445312 308.589844 337.140625 L 241.367188 344.339844 L 206.207031 348.136719 C 205.820312 346.433594 204.425781 345.039062 202.644531 344.652344 L 205.894531 306.945312 Z M 173.523438 430.828125 C 173.523438 430.902344 173.523438 430.980469 173.523438 431.058594 C 173.523438 432.917969 174.683594 434.542969 176.3125 435.238281 L 155.167969 507.324219 C 154.9375 507.246094 154.703125 507.246094 154.394531 507.246094 C 154.238281 507.246094 154.085938 507.246094 153.851562 507.246094 L 134.878906 427.652344 C 136.195312 427.1875 137.277344 426.027344 137.664062 424.710938 L 168.101562 429.976562 Z M 152.148438 558.347656 L 212.710938 544.253906 C 213.253906 545.804688 214.726562 547.042969 216.429688 547.199219 L 216.351562 569.109375 L 216.117188 609.679688 C 215.113281 609.835938 214.183594 610.300781 213.40625 610.917969 L 151.449219 561.132812 C 151.914062 560.4375 152.148438 559.585938 152.148438 558.734375 C 152.226562 558.65625 152.148438 558.503906 152.148438 558.347656 Z M 119.15625 651.722656 C 121.089844 651.722656 122.796875 650.484375 123.414062 648.78125 L 159.738281 657.605469 C 159.738281 657.761719 159.738281 657.996094 159.738281 658.148438 C 159.738281 658.921875 159.890625 659.621094 160.28125 660.316406 L 116.210938 690.667969 C 115.59375 689.972656 114.820312 689.507812 113.964844 689.273438 L 119.15625 651.722656 C 119.078125 651.722656 119.078125 651.722656 119.15625 651.722656 Z M 173.367188 710.179688 C 174.21875 709.949219 174.996094 709.40625 175.613281 708.707031 L 182.195312 712.96875 L 218.675781 736.503906 C 218.363281 737.125 218.210938 737.820312 218.210938 738.519531 C 218.210938 739.058594 218.289062 739.523438 218.441406 739.988281 L 184.90625 756.015625 C 184.054688 754.777344 182.660156 753.925781 181.035156 753.925781 C 180.957031 753.925781 180.878906 753.925781 180.804688 753.925781 L 176.621094 729.382812 Z M 181.035156 763.0625 C 181.113281 763.0625 181.191406 763.0625 181.269531 763.0625 L 187.851562 802.160156 C 186.6875 802.472656 185.757812 803.246094 185.140625 804.328125 L 148.351562 788.921875 C 148.429688 788.535156 148.507812 788.070312 148.507812 787.683594 C 148.507812 786.832031 148.277344 785.980469 147.8125 785.28125 L 177.78125 761.746094 C 178.632812 762.597656 179.796875 763.0625 181.035156 763.0625 Z M 184.441406 761.511719 C 185.140625 760.738281 185.605469 759.65625 185.605469 758.492188 C 185.605469 757.953125 185.527344 757.488281 185.371094 757.023438 L 212.246094 744.09375 L 218.828125 740.917969 C 219.292969 741.691406 220.070312 742.3125 220.921875 742.699219 L 208.917969 784.820312 C 208.683594 784.820312 208.453125 784.742188 208.21875 784.742188 C 207.289062 784.742188 206.359375 785.050781 205.585938 785.515625 L 203.960938 783.65625 Z M 223.089844 733.871094 L 220.765625 688.5 C 221.539062 688.34375 222.316406 688.035156 222.855469 687.492188 L 259.566406 722.492188 C 259.023438 723.265625 258.636719 724.195312 258.636719 725.199219 C 258.636719 725.511719 258.636719 725.820312 258.714844 726.050781 L 226.882812 736.503906 C 226.1875 735.035156 224.792969 734.027344 223.089844 733.871094 Z M 276.914062 534.421875 C 275.984375 535.195312 275.367188 536.359375 275.289062 537.75 L 221.539062 541.855469 C 221.230469 540.152344 219.914062 538.835938 218.289062 538.371094 L 229.363281 466.210938 C 229.441406 466.210938 229.441406 466.210938 229.515625 466.210938 C 230.214844 466.210938 230.910156 466.054688 231.53125 465.746094 L 272.808594 528.382812 Z M 289.074219 453.203125 C 288.144531 453.976562 287.445312 455.214844 287.445312 456.53125 L 234.085938 460.636719 C 233.855469 459.320312 233.003906 458.234375 231.917969 457.617188 L 254.765625 404.964844 C 255.152344 405.121094 255.617188 405.121094 256.082031 405.121094 C 256.777344 405.121094 257.476562 404.964844 258.09375 404.65625 L 273.042969 427.960938 Z M 304.484375 227.273438 L 377.128906 146.980469 C 377.90625 147.523438 378.757812 147.835938 379.761719 147.835938 C 380.460938 147.835938 381.082031 147.679688 381.699219 147.445312 L 435.371094 234.472656 C 434.519531 235.171875 433.898438 236.101562 433.742188 237.261719 L 305.648438 230.058594 C 305.492188 228.976562 305.105469 228.046875 304.484375 227.273438 Z M 307.816406 92.320312 C 308.433594 92.628906 309.054688 92.785156 309.828125 92.785156 C 311.066406 92.785156 312.230469 92.242188 313.082031 91.46875 L 314.089844 92.320312 L 375.890625 140.941406 C 375.503906 141.640625 375.195312 142.414062 375.195312 143.34375 L 270.175781 155.964844 C 269.945312 154.957031 269.402344 154.105469 268.628906 153.484375 L 290.46875 119.339844 Z M 265.683594 161.617188 C 266.226562 161.617188 266.691406 161.539062 267.15625 161.382812 L 298.445312 226.421875 C 297.515625 226.964844 296.816406 227.894531 296.507812 228.898438 L 212.945312 214.035156 C 212.945312 213.957031 212.945312 213.878906 212.945312 213.800781 C 212.945312 212.71875 212.554688 211.789062 212.015625 211.015625 L 262.820312 160.6875 C 263.671875 161.230469 264.601562 161.617188 265.683594 161.617188 Z M 212.789062 215.117188 L 296.429688 230.058594 C 296.429688 230.136719 296.429688 230.214844 296.429688 230.292969 C 296.429688 230.757812 296.507812 231.222656 296.664062 231.6875 L 212.167969 269.933594 C 211.472656 268.773438 210.234375 267.921875 208.839844 267.765625 L 208.992188 218.292969 C 210.773438 218.136719 212.246094 216.820312 212.789062 215.117188 Z M 199.777344 353.324219 L 178.789062 426.492188 C 178.558594 426.492188 178.324219 426.414062 178.09375 426.414062 C 177.9375 426.414062 177.78125 426.414062 177.628906 426.414062 L 163.53125 364.316406 L 162.0625 357.734375 C 163.84375 357.117188 165.082031 355.414062 165.082031 353.476562 L 197.144531 350.070312 C 197.453125 351.621094 198.460938 352.78125 199.777344 353.324219 Z M 125.195312 605.113281 L 138.980469 624.160156 L 161.132812 654.742188 C 160.589844 655.207031 160.203125 655.828125 159.96875 656.523438 L 123.648438 647.621094 C 123.648438 647.464844 123.648438 647.230469 123.648438 647.078125 C 123.648438 644.832031 122.097656 643.050781 120.007812 642.585938 L 123.105469 605.65625 C 123.878906 605.65625 124.578125 605.421875 125.195312 605.113281 Z M 117.375 693.996094 C 117.375 693.84375 117.375 693.765625 117.375 693.609375 C 117.375 692.835938 117.21875 692.140625 116.832031 691.441406 L 122.871094 687.261719 L 160.820312 661.089844 C 161.671875 662.019531 162.914062 662.640625 164.230469 662.640625 C 164.308594 662.640625 164.382812 662.640625 164.382812 662.640625 L 170.65625 701.277344 C 169.1875 701.664062 168.023438 702.824219 167.558594 704.21875 L 137.046875 698.023438 Z M 136.582031 744.558594 C 136.660156 744.324219 136.660156 744.015625 136.660156 743.78125 C 136.660156 742.777344 136.347656 741.847656 135.730469 741.074219 L 169.109375 709.328125 C 169.882812 709.949219 170.890625 710.410156 172.050781 710.410156 C 172.128906 710.410156 172.207031 710.410156 172.285156 710.410156 L 175.304688 727.910156 L 179.796875 754.15625 C 178.480469 754.542969 177.472656 755.472656 176.929688 756.710938 L 171.355469 755.007812 Z M 189.089844 802.007812 C 189.011719 802.007812 188.933594 802.007812 188.859375 802.007812 L 182.273438 762.90625 C 182.738281 762.753906 183.203125 762.597656 183.589844 762.289062 L 204.734375 786.289062 C 204.035156 787.0625 203.574219 788.148438 203.574219 789.308594 C 203.574219 790.316406 203.882812 791.167969 204.425781 791.941406 L 192.109375 803.089844 C 191.335938 802.472656 190.25 802.007812 189.089844 802.007812 Z M 212.015625 786.832031 C 211.550781 786.058594 210.773438 785.4375 209.921875 785.128906 L 221.925781 743.007812 C 222.160156 743.007812 222.390625 743.085938 222.625 743.085938 C 223.632812 743.085938 224.484375 742.777344 225.257812 742.234375 L 246.167969 765.773438 C 245.472656 766.546875 245.007812 767.628906 245.007812 768.792969 C 245.007812 769.332031 245.082031 769.875 245.238281 770.339844 L 219.292969 783.191406 Z M 260.339844 721.792969 L 223.632812 686.796875 C 224.171875 686.023438 224.558594 685.09375 224.558594 684.085938 C 224.558594 683.777344 224.558594 683.46875 224.484375 683.082031 L 263.515625 669.53125 C 264.136719 670.769531 265.296875 671.699219 266.769531 672.007812 L 263.050781 720.785156 C 261.96875 720.785156 261.039062 721.175781 260.339844 721.792969 Z M 324.542969 582.8125 L 272.65625 581.882812 C 272.5 580.179688 271.339844 578.710938 269.789062 578.089844 L 278.308594 545.882812 L 279.238281 542.476562 C 279.46875 542.476562 279.625 542.550781 279.855469 542.550781 C 281.019531 542.550781 282.027344 542.164062 282.800781 541.46875 L 325.320312 580.800781 C 324.929688 581.34375 324.621094 582.039062 324.542969 582.8125 Z M 292.015625 452.117188 C 291.320312 452.117188 290.621094 452.273438 290.003906 452.582031 L 268.550781 419.058594 L 258.945312 404.035156 C 259.953125 403.183594 260.574219 402.023438 260.574219 400.628906 L 341.117188 393.351562 C 341.273438 394.203125 341.738281 394.902344 342.28125 395.519531 L 294.496094 452.816406 C 293.71875 452.429688 292.867188 452.117188 292.015625 452.117188 Z M 483.929688 169.28125 C 482.765625 169.746094 481.839844 170.597656 481.375 171.757812 L 384.332031 143.960938 C 384.332031 143.730469 384.410156 143.5 384.410156 143.265625 C 384.410156 142.183594 384.023438 141.175781 383.402344 140.402344 L 399.898438 123.523438 L 453.957031 68.316406 C 454.730469 69.015625 455.816406 69.402344 456.976562 69.402344 C 457.210938 69.402344 457.441406 69.402344 457.675781 69.324219 Z M 391.691406 17.0625 C 392.15625 17.214844 392.621094 17.292969 393.085938 17.292969 C 394.324219 17.292969 395.40625 16.828125 396.257812 16.054688 L 453.261719 62.199219 C 452.949219 62.664062 452.640625 63.207031 452.5625 63.75 L 376.199219 60.808594 C 376.046875 59.257812 375.195312 58.019531 373.953125 57.246094 Z M 324.699219 50.664062 C 325.085938 50.742188 325.550781 50.820312 325.9375 50.820312 C 327.796875 50.820312 329.347656 49.734375 330.042969 48.1875 L 366.984375 60.1875 C 366.90625 60.496094 366.90625 60.730469 366.90625 61.039062 C 366.90625 61.503906 366.984375 61.96875 367.140625 62.355469 L 313.777344 85.738281 C 313.3125 85.042969 312.695312 84.421875 311.996094 84.035156 Z M 279.238281 73.582031 C 279.78125 73.816406 280.476562 73.96875 281.097656 73.96875 C 282.492188 73.96875 283.730469 73.351562 284.582031 72.34375 L 305.648438 86.125 C 305.335938 86.746094 305.183594 87.441406 305.183594 88.136719 C 305.183594 88.679688 305.261719 89.222656 305.414062 89.6875 L 271.878906 106.488281 L 256.3125 114.230469 C 256.003906 113.84375 255.695312 113.457031 255.308594 113.148438 Z M 254.453125 120.96875 C 256.003906 120.269531 257.089844 118.644531 257.089844 116.785156 C 257.089844 116.246094 257.011719 115.703125 256.855469 115.238281 L 306.035156 90.695312 C 306.265625 91.082031 306.578125 91.390625 306.964844 91.699219 L 268.085938 152.402344 L 267.777344 152.867188 C 267.15625 152.558594 266.535156 152.402344 265.761719 152.402344 C 265.453125 152.402344 265.140625 152.402344 264.832031 152.480469 Z M 185.296875 319.410156 C 186.378906 318.558594 187.152344 317.242188 187.152344 315.769531 C 187.152344 314.300781 186.457031 312.984375 185.371094 312.132812 L 206.4375 276.59375 C 206.746094 276.75 207.058594 276.824219 207.367188 276.902344 L 201.558594 344.574219 C 201.015625 344.574219 200.472656 344.730469 199.933594 344.960938 Z M 159.351562 357.96875 C 159.738281 358.046875 160.125 358.125 160.511719 358.125 C 160.667969 358.125 160.820312 358.125 160.976562 358.125 L 176.621094 426.722656 C 175.226562 427.1875 174.21875 428.347656 173.753906 429.742188 L 137.898438 423.546875 C 137.898438 423.472656 137.898438 423.394531 137.898438 423.316406 C 137.898438 421.535156 136.890625 420.0625 135.496094 419.289062 Z M 152.765625 507.554688 C 152.304688 507.710938 151.914062 507.941406 151.527344 508.253906 L 138.285156 495.167969 C 138.90625 494.394531 139.214844 493.386719 139.214844 492.378906 C 139.214844 489.980469 137.433594 488.042969 135.109375 487.8125 L 133.949219 428.503906 Z M 138.980469 539.222656 C 140.296875 538.449219 141.152344 536.976562 141.152344 535.351562 C 141.152344 534.035156 140.609375 532.875 139.757812 532.023438 L 152.070312 515.761719 C 152.378906 515.996094 152.765625 516.148438 153.15625 516.226562 L 147.65625 554.242188 C 147.65625 554.242188 147.578125 554.242188 147.578125 554.242188 C 147.113281 554.242188 146.570312 554.320312 146.183594 554.476562 Z M 145.796875 563.070312 C 146.339844 563.300781 146.957031 563.457031 147.578125 563.457031 C 148.816406 563.457031 149.980469 562.992188 150.753906 562.140625 L 179.175781 584.980469 L 212.710938 611.925781 C 212.480469 612.3125 212.324219 612.699219 212.167969 613.164062 L 127.597656 601.164062 C 127.597656 601.164062 127.597656 601.085938 127.597656 601.085938 C 127.597656 599.617188 126.898438 598.300781 125.738281 597.449219 Z M 107.074219 644.210938 C 107.230469 644.210938 107.382812 644.210938 107.539062 644.210938 C 108.933594 644.210938 110.25 643.59375 111.101562 642.585938 L 114.972656 645.0625 C 114.664062 645.683594 114.507812 646.378906 114.507812 647.078125 C 114.507812 647.773438 114.664062 648.394531 114.894531 648.9375 L 107.230469 653.582031 C 106.6875 652.882812 105.988281 652.417969 105.214844 652.109375 Z M 105.292969 660.78125 C 106.996094 660.164062 108.234375 658.460938 108.234375 656.523438 C 108.234375 655.828125 108.082031 655.207031 107.847656 654.664062 L 115.515625 650.019531 C 116.136719 650.792969 116.988281 651.335938 117.992188 651.644531 L 117.21875 657.605469 L 112.882812 689.195312 C 112.882812 689.195312 112.804688 689.195312 112.804688 689.195312 C 112.648438 689.195312 112.417969 689.195312 112.261719 689.195312 Z M 114.972656 697.714844 C 115.980469 697.171875 116.832031 696.242188 117.140625 695.082031 L 156.328125 703.132812 L 167.480469 705.378906 C 167.480469 705.535156 167.480469 705.613281 167.480469 705.765625 C 167.480469 706.773438 167.792969 707.703125 168.410156 708.476562 L 135.03125 740.222656 C 134.257812 739.601562 133.25 739.136719 132.089844 739.136719 C 131.703125 739.136719 131.316406 739.214844 131.003906 739.292969 Z M 133.792969 748.042969 C 134.878906 747.578125 135.804688 746.726562 136.269531 745.640625 L 146.105469 748.582031 L 176.464844 757.71875 C 176.386719 757.953125 176.386719 758.261719 176.386719 758.492188 C 176.386719 759.34375 176.621094 760.195312 177.085938 760.894531 L 147.113281 784.429688 C 146.261719 783.578125 145.175781 783.113281 143.859375 783.113281 C 143.628906 783.113281 143.394531 783.113281 143.242188 783.191406 Z M 145.640625 791.941406 C 146.570312 791.554688 147.421875 790.859375 147.886719 789.929688 L 184.675781 805.335938 C 184.597656 805.722656 184.519531 806.1875 184.519531 806.574219 C 184.519531 807.273438 184.675781 807.890625 184.984375 808.511719 L 184.441406 808.820312 L 158.574219 824.925781 C 157.722656 823.917969 156.484375 823.222656 155.011719 823.222656 C 154.78125 823.222656 154.546875 823.222656 154.316406 823.300781 Z M 240.128906 788.457031 C 239.664062 788.300781 239.199219 788.226562 238.734375 788.226562 C 236.566406 788.226562 234.785156 789.695312 234.242188 791.785156 L 212.789062 789.308594 C 212.789062 788.765625 212.710938 788.300781 212.554688 787.839844 L 218.828125 784.742188 L 245.9375 771.347656 C 246.324219 771.886719 246.789062 772.351562 247.40625 772.738281 Z M 250.582031 764.222656 C 250.351562 764.144531 250.039062 764.144531 249.730469 764.144531 C 248.722656 764.144531 247.871094 764.457031 247.097656 764.996094 L 237.957031 754.777344 L 226.109375 741.460938 C 226.804688 740.683594 227.269531 739.601562 227.269531 738.441406 C 227.269531 738.128906 227.269531 737.820312 227.195312 737.589844 L 232.226562 735.960938 L 259.023438 727.289062 C 259.488281 728.296875 260.261719 729.070312 261.269531 729.535156 Z M 271.492188 664.960938 C 270.796875 663.878906 269.632812 663.105469 268.242188 662.949219 L 268.316406 642.585938 L 268.628906 586.917969 C 269.246094 586.839844 269.867188 586.609375 270.410156 586.296875 L 301.699219 627.644531 L 311.609375 640.730469 C 310.757812 641.582031 310.214844 642.742188 310.214844 644.058594 C 310.214844 644.601562 310.292969 645.140625 310.449219 645.605469 Z M 337.246094 606.582031 C 335.773438 607.359375 334.765625 608.90625 334.765625 610.609375 C 334.765625 611.925781 335.308594 613.085938 336.238281 613.9375 L 317.03125 640.03125 C 316.800781 639.875 316.566406 639.800781 316.335938 639.722656 L 319.277344 627.410156 L 328.570312 587.925781 C 328.726562 587.925781 328.882812 587.925781 329.113281 587.925781 C 329.5 587.925781 329.886719 587.847656 330.199219 587.769531 Z M 280.011719 533.339844 C 279.933594 533.339844 279.933594 533.339844 279.855469 533.339844 C 279.160156 533.339844 278.464844 533.492188 277.84375 533.804688 L 232.539062 465.046875 C 233.46875 464.273438 234.085938 463.113281 234.164062 461.71875 L 287.523438 457.617188 C 287.835938 459.320312 289.152344 460.710938 290.777344 461.101562 Z M 381.003906 381.660156 C 380.460938 381.429688 379.839844 381.273438 379.222656 381.273438 C 376.664062 381.273438 374.652344 383.363281 374.652344 385.84375 C 374.652344 385.917969 374.652344 385.996094 374.652344 386.074219 L 349.945312 390.953125 C 349.792969 390.488281 349.636719 390.101562 349.328125 389.789062 L 367.992188 373.066406 L 409.734375 335.667969 C 409.8125 335.667969 409.8125 335.746094 409.890625 335.746094 Z M 410.046875 328.625 C 408.960938 329.476562 408.265625 330.792969 408.265625 332.261719 C 408.265625 333.269531 408.574219 334.121094 409.117188 334.894531 L 348.628906 389.015625 C 348.550781 389.015625 348.550781 388.9375 348.476562 388.9375 L 396.570312 312.210938 C 397.1875 312.519531 397.808594 312.675781 398.503906 312.675781 C 399.125 312.675781 399.746094 312.519531 400.363281 312.285156 Z M 400.285156 303.769531 C 399.746094 303.539062 399.125 303.382812 398.503906 303.382812 C 397.265625 303.382812 396.105469 303.925781 395.253906 304.699219 L 304.871094 232.691406 C 305.183594 232.226562 305.414062 231.6875 305.492188 231.066406 L 416.242188 237.261719 L 433.667969 238.269531 C 433.742188 239.660156 434.441406 240.898438 435.523438 241.675781 Z M 442.804688 238.113281 C 442.804688 238.113281 442.804688 238.035156 442.804688 238.035156 C 442.804688 236.71875 442.261719 235.558594 441.332031 234.707031 L 483.308594 177.566406 C 483.929688 177.953125 484.625 178.109375 485.402344 178.183594 L 490.667969 241.289062 C 488.964844 241.675781 487.648438 242.914062 487.183594 244.617188 Z M 442.804688 238.113281 " fill-opacity="1" fill-rule="nonzero"/></g></svg>