<svg xmlns="http://www.w3.org/2000/svg" xmlns:xlink="http://www.w3.org/1999/xlink" width="793" zoomAndPan="magnify" viewBox="0 0 594.95996 842.24997" height="1122" preserveAspectRatio="xMidYMid meet" version="1.0"><defs><clipPath id="f3002fdb06"><path d="M 101.398438 10.710938 L 494 10.710938 L 494 830.480469 L 101.398438 830.480469 Z M 101.398438 10.710938 " clip-rule="nonzero"/></clipPath></defs><g clip-path="url(#f3002fdb06)"><path fill="#231f20" d="M 493.535156 245.507812 L 487.507812 173.296875 C 487.507812 173.214844 487.507812 173.128906 487.421875 172.964844 L 458.773438 63.941406 C 458.691406 63.613281 458.441406 63.28125 458.195312 63.035156 L 394.203125 11.207031 C 393.792969 10.875 393.214844 10.710938 392.636719 10.875 C 392.058594 11.042969 391.644531 11.371094 391.398438 11.867188 L 370.507812 58.910156 L 326.25 44.546875 C 325.34375 44.21875 324.351562 44.714844 324.019531 45.621094 L 308.828125 85.402344 L 281.992188 67.90625 C 281.582031 67.65625 281.085938 67.574219 280.589844 67.65625 C 280.09375 67.738281 279.683594 68.070312 279.433594 68.484375 L 250.78125 115.855469 C 250.535156 116.265625 250.453125 116.84375 250.617188 117.339844 L 263.5 156.542969 L 206.9375 212.496094 C 206.609375 212.828125 206.445312 213.238281 206.445312 213.734375 L 206.277344 271.835938 L 180.765625 314.75 C 180.433594 315.328125 180.433594 315.988281 180.765625 316.566406 L 198.515625 347.597656 L 160.039062 351.726562 C 159.378906 351.808594 158.800781 352.21875 158.554688 352.878906 L 131.636719 422.617188 C 131.554688 422.867188 131.472656 423.03125 131.554688 423.277344 L 133.039062 492.355469 C 133.039062 492.851562 133.207031 493.265625 133.535156 493.59375 L 152.113281 512 L 135.269531 534.28125 C 134.855469 534.777344 134.773438 535.519531 135.105469 536.097656 L 145.753906 558.792969 L 121.5625 600.222656 C 121.398438 600.46875 121.316406 600.71875 121.316406 600.964844 L 117.601562 643.964844 L 108.515625 638.105469 C 108.023438 637.773438 107.445312 637.773438 106.867188 637.9375 C 106.371094 638.1875 105.957031 638.597656 105.792969 639.175781 L 101.910156 656.011719 C 101.828125 656.261719 101.828125 656.589844 101.910156 656.839844 L 110.996094 694.058594 C 110.996094 694.140625 110.996094 694.222656 111.078125 694.308594 L 130.316406 744.402344 L 142.121094 788.226562 L 153.1875 828.417969 C 153.433594 829.160156 154.09375 829.738281 154.839844 829.738281 L 188.445312 830.480469 C 189.433594 830.480469 190.175781 829.738281 190.175781 828.75 L 190.671875 807.457031 L 208.589844 791.28125 L 238.316406 794.664062 C 239.058594 794.746094 239.800781 794.332031 240.132812 793.671875 L 251.195312 769.574219 C 251.195312 769.492188 251.277344 769.410156 251.277344 769.328125 L 264.820312 725.917969 C 264.820312 725.75 264.902344 725.667969 264.902344 725.503906 L 269.195312 668.640625 L 315.433594 645.695312 C 315.679688 645.53125 315.929688 645.367188 316.09375 645.121094 L 340.699219 611.695312 C 341.03125 611.199219 341.113281 610.539062 340.949219 610.042969 L 330.625 582.890625 C 330.542969 582.644531 330.378906 582.394531 330.132812 582.230469 L 281.582031 537.335938 L 293.46875 457.609375 L 346.398438 394.226562 L 379.257812 387.707031 C 379.753906 387.625 380.167969 387.296875 380.414062 386.882812 L 414.183594 333.238281 C 414.515625 332.660156 414.515625 332 414.183594 331.421875 L 400.644531 307.902344 L 439.203125 239.898438 L 491.46875 247.40625 C 491.964844 247.488281 492.542969 247.324219 492.957031 246.914062 C 493.367188 246.582031 493.617188 246.003906 493.535156 245.507812 Z M 408.570312 335.796875 L 347.882812 390.183594 L 347.304688 390.265625 L 363.242188 364.929688 L 397.753906 309.882812 L 410.964844 332.164062 Z M 248.140625 768.089844 L 247.398438 769.65625 L 210.738281 787.8125 L 208.921875 787.566406 L 222.792969 738.875 L 240.625 758.929688 L 248.222656 767.429688 Z M 157.316406 826.191406 L 156.324219 826.191406 L 146.085938 788.886719 L 187.453125 806.21875 C 187.453125 806.382812 187.371094 806.464844 187.371094 806.628906 L 187.371094 807.539062 L 174.40625 815.625 Z M 105.710938 655.433594 L 117.601562 648.171875 L 118.09375 648.503906 C 118.261719 648.585938 118.425781 648.667969 118.589844 648.75 L 113.222656 688.199219 L 105.460938 656.425781 Z M 210.738281 213.898438 L 266.386719 158.851562 L 300.652344 229.992188 L 254.746094 221.824219 Z M 290.910156 455.300781 L 290.664062 455.546875 C 290.414062 455.796875 290.332031 456.125 290.25 456.457031 L 290.25 456.621094 L 229.894531 461.242188 L 256.066406 400.996094 L 272.5 426.578125 Z M 145.671875 787.234375 L 145.507812 786.742188 L 180.929688 758.929688 L 188.609375 804.730469 L 187.949219 805.308594 C 187.78125 805.476562 187.699219 805.558594 187.617188 805.722656 L 145.921875 788.226562 Z M 134.03125 744.15625 L 133.785156 743.328125 C 133.785156 743.246094 133.785156 743.246094 133.699219 743.164062 L 133.535156 742.667969 L 162.601562 715.023438 L 171.847656 706.191406 L 180.683594 758.101562 L 159.710938 751.832031 Z M 114.792969 693.8125 L 114.546875 693.070312 L 114.460938 692.738281 L 164.25 658.40625 L 171.847656 705.367188 L 131.800781 697.195312 Z M 186.132812 640.085938 L 216.515625 614.664062 L 219.820312 683.578125 L 164.828125 657.992188 Z M 219.488281 683.992188 L 172.261719 705.449219 L 164.664062 658.488281 L 167.472656 659.808594 Z M 172.34375 706.191406 L 222.296875 738.378906 L 181.175781 758.101562 L 177.542969 736.890625 Z M 222.542969 738.046875 L 172.507812 705.777344 L 218.746094 684.816406 L 219.820312 684.320312 L 220.234375 692.160156 Z M 149.140625 559.699219 C 149.304688 559.371094 149.390625 558.957031 149.390625 558.628906 L 211.5625 544.183594 L 216.847656 542.945312 L 216.597656 596.179688 L 216.515625 613.839844 Z M 203.058594 350.074219 C 203.140625 349.992188 203.140625 349.910156 203.222656 349.828125 C 203.386719 349.578125 203.386719 349.332031 203.386719 349.085938 L 312.625 337.363281 L 255.984375 400.171875 Z M 255.570312 400.914062 L 229.398438 461.160156 L 178.535156 431.035156 L 232.867188 409.742188 Z M 207.515625 448.617188 L 229.148438 461.40625 L 155.746094 510.59375 C 155.746094 510.59375 155.664062 510.511719 155.664062 510.511719 L 155.167969 510.019531 L 178.289062 431.285156 Z M 217.261719 543.113281 L 267.710938 582.3125 L 216.847656 613.921875 Z M 156.078125 512.410156 C 156.242188 512 156.160156 511.503906 155.996094 511.007812 L 167.472656 503.332031 L 229.316406 461.984375 L 216.929688 542.371094 Z M 397.09375 307.078125 C 396.847656 307.488281 396.847656 307.902344 396.929688 308.316406 L 313.371094 336.789062 L 301.316406 230.734375 Z M 201.820312 350.816406 C 202.148438 350.816406 202.480469 350.652344 202.726562 350.40625 L 255.570312 400.417969 L 178.371094 430.625 L 188.855469 394.226562 L 201.324219 350.898438 Z M 155.828125 512.824219 C 155.828125 512.824219 155.910156 512.742188 155.910156 512.742188 L 216.433594 542.535156 L 149.304688 558.132812 C 149.304688 558.050781 149.304688 558.050781 149.222656 557.96875 L 148.234375 555.902344 L 154.179688 514.96875 Z M 163.753906 658.160156 L 122.058594 686.878906 L 114.214844 692.242188 L 113.472656 689.355469 L 119.003906 648.75 C 119.25 648.75 119.582031 648.667969 119.828125 648.585938 C 120.242188 648.421875 120.574219 648.007812 120.738281 647.59375 L 151.785156 655.1875 Z M 222.378906 738.875 L 208.507812 787.566406 L 208.425781 787.566406 C 208.011719 787.484375 207.597656 787.648438 207.1875 787.894531 L 181.425781 758.515625 Z M 216.929688 614.832031 L 242.773438 641.816406 L 266.304688 666.328125 C 266.058594 666.578125 265.976562 666.90625 265.894531 667.320312 L 265.894531 667.816406 L 220.234375 683.660156 Z M 266.882812 665.835938 C 266.800781 665.917969 266.71875 665.917969 266.636719 666 L 235.09375 633.152344 L 217.011719 614.335938 L 267.875 582.726562 L 267.460938 665.585938 Z M 278.195312 538.242188 C 278.277344 538.574219 278.441406 538.902344 278.691406 539.152344 L 279.1875 539.644531 L 268.039062 581.902344 L 217.671875 542.78125 L 247.644531 540.472656 Z M 313.121094 337.53125 L 344.582031 391.007812 C 344.496094 391.09375 344.414062 391.175781 344.332031 391.257812 L 343.425781 392.414062 L 256.5625 400.253906 Z M 346.726562 390.433594 L 345.40625 390.679688 C 345.324219 390.679688 345.160156 390.761719 345.074219 390.761719 L 313.617188 337.199219 L 397.011719 308.726562 C 397.011719 308.808594 397.011719 308.808594 397.09375 308.890625 L 397.425781 309.46875 L 368.03125 356.347656 Z M 371.085938 62.789062 C 371.25 62.871094 371.414062 62.871094 371.582031 62.871094 L 379.589844 142.675781 L 311.386719 88.949219 C 311.46875 88.867188 311.46875 88.785156 311.554688 88.703125 L 312.046875 87.382812 L 369.515625 62.292969 Z M 267.046875 158.191406 C 267.378906 157.863281 267.542969 157.367188 267.542969 156.953125 L 379.339844 143.417969 L 301.148438 229.828125 L 266.800781 158.441406 Z M 436.480469 237.585938 L 301.5625 229.992188 L 379.917969 143.503906 L 437.304688 236.511719 C 437.140625 236.679688 436.972656 236.84375 436.890625 237.007812 Z M 455.636719 66.089844 L 483.625 172.636719 L 380.25 143.007812 Z M 455.46875 65.347656 L 455.550781 65.59375 L 380.085938 142.675781 L 371.992188 62.789062 C 372.488281 62.707031 372.984375 62.292969 373.230469 61.796875 L 373.398438 61.386719 L 454.394531 64.519531 Z M 309.074219 89.691406 C 309.488281 89.859375 309.984375 89.941406 310.398438 89.773438 C 310.644531 89.691406 310.890625 89.527344 311.058594 89.363281 L 351.1875 120.972656 L 379.257812 143.089844 L 267.460938 156.625 C 267.460938 156.625 267.460938 156.542969 267.460938 156.542969 L 267.132812 155.46875 L 286.617188 125.015625 Z M 209.992188 271.753906 L 300.820312 230.570312 L 312.875 336.703125 L 209.828125 273.074219 C 209.910156 272.828125 209.992188 272.578125 209.992188 272.332031 Z M 208.175781 275.878906 L 209.664062 273.40625 L 312.542969 336.953125 L 203.386719 348.671875 C 203.386719 348.507812 203.304688 348.339844 203.222656 348.175781 L 202.148438 346.277344 L 206.359375 297.585938 Z M 194.554688 372.769531 L 178.121094 430.046875 L 161.277344 356.183594 L 161.691406 355.109375 L 200.828125 350.898438 Z M 177.792969 431.117188 L 154.753906 509.6875 L 153.847656 508.863281 L 135.105469 430.457031 L 134.9375 423.855469 L 173.582031 430.542969 Z M 215.9375 613.921875 L 125.03125 601.128906 L 148.894531 560.113281 Z M 216.1875 614.417969 L 164.417969 657.746094 L 124.617188 602.863281 L 124.699219 601.542969 L 124.785156 601.460938 L 161.277344 606.578125 Z M 140.390625 625.394531 L 163.839844 657.746094 L 120.902344 647.265625 C 120.902344 647.265625 120.902344 647.265625 120.902344 647.183594 L 124.535156 603.605469 Z M 122.472656 695.792969 L 171.601562 705.859375 L 133.371094 742.175781 L 114.957031 694.222656 Z M 180.601562 758.515625 L 145.425781 786.164062 L 134.113281 744.648438 Z M 181.425781 759.175781 L 197.9375 777.910156 L 206.9375 788.144531 L 189.023438 804.320312 Z M 233.445312 750.097656 L 223.121094 738.542969 L 254.085938 728.472656 L 261.105469 726.164062 L 248.472656 766.851562 Z M 222.957031 738.128906 L 220.234375 684.484375 L 261.597656 723.933594 L 261.515625 724.925781 L 261.269531 725.667969 L 239.386719 732.765625 Z M 220.398438 684.074219 L 265.808594 668.308594 L 261.597656 723.441406 Z M 313.535156 642.726562 L 267.957031 665.421875 L 268.371094 583.058594 Z M 313.863281 642.394531 L 268.617188 582.5625 L 326.746094 583.632812 L 327.652344 584.460938 L 328.3125 586.191406 L 315.597656 640.167969 Z M 268.453125 582.066406 L 279.597656 539.976562 L 326.25 583.140625 Z M 278.359375 536.015625 L 278.113281 537.664062 C 278.113281 537.746094 278.113281 537.746094 278.113281 537.832031 L 252.929688 539.726562 L 217.34375 542.453125 L 221.472656 515.710938 L 229.726562 462.148438 L 238.066406 474.777344 Z M 279.597656 457.859375 L 290.167969 457.035156 L 278.441406 535.273438 L 229.894531 461.574219 Z M 262.425781 410.074219 L 256.398438 400.664062 L 310.808594 395.796875 L 343.011719 392.90625 L 291.242188 454.96875 Z M 355.148438 272.992188 L 301.726562 230.488281 L 337.726562 232.550781 L 436.230469 238.082031 L 397.339844 306.664062 Z M 439.285156 236.265625 L 438.625 236.183594 C 438.296875 236.101562 437.964844 236.183594 437.636719 236.347656 L 419.304688 206.554688 L 380.414062 143.503906 L 483.875 173.128906 L 484.039062 173.789062 L 484.203125 175.359375 L 454.230469 216.128906 Z M 390.984375 61.550781 L 373.5625 60.890625 L 393.707031 15.414062 L 453.734375 64.027344 Z M 368.855469 62.046875 L 312.296875 86.804688 L 326.910156 48.425781 Z M 308.25 89.113281 L 308.746094 89.445312 L 305.359375 94.726562 L 266.882812 154.808594 L 254.414062 117.011719 L 255.242188 115.691406 Z M 255.738281 114.863281 L 281.746094 71.785156 L 307.753906 88.785156 Z M 210.242188 214.394531 L 210.40625 214.230469 L 287.527344 228.011719 L 300.324219 230.324219 L 210.078125 271.257812 Z M 207.597656 276.789062 L 201.65625 345.617188 L 184.5625 315.660156 Z M 177.792969 430.707031 L 135.105469 423.359375 L 161.03125 356.925781 Z M 136.507812 491.53125 L 135.269531 432.523438 L 153.351562 508.285156 Z M 153.601562 515.792969 L 147.902344 555.242188 L 138.65625 535.519531 Z M 117.1875 647.925781 L 105.875 654.773438 L 108.683594 642.394531 Z M 158.140625 826.191406 L 185.304688 809.269531 L 187.371094 807.949219 L 186.875 826.769531 Z M 211.5625 787.894531 L 247.066406 770.316406 L 237.65625 790.867188 Z M 316.175781 639.175781 L 328.5625 586.851562 L 337.480469 610.292969 Z M 348.707031 390.019531 L 407.664062 337.199219 L 378.019531 384.242188 Z M 439.78125 236.347656 L 484.203125 175.9375 L 489.902344 243.527344 Z M 439.78125 236.347656 " fill-opacity="1" fill-rule="nonzero"/></g><path fill="#231f20" d="M 276.046875 731.03125 C 275.964844 730.207031 275.46875 729.546875 274.644531 729.382812 C 273.902344 729.21875 273.078125 729.546875 272.664062 730.289062 L 252.269531 768.007812 C 252.019531 768.417969 252.019531 768.832031 252.105469 769.328125 L 257.304688 789.132812 C 257.472656 789.875 258.132812 790.453125 258.957031 790.453125 C 258.957031 790.453125 259.039062 790.453125 259.039062 790.453125 C 259.78125 790.453125 260.441406 789.960938 260.691406 789.300781 L 276.710938 745.804688 C 276.792969 745.558594 276.792969 745.308594 276.792969 745.0625 Z M 258.542969 763.960938 L 271.753906 749.273438 L 259.453125 782.777344 L 255.820312 769.078125 Z M 272.167969 748.199219 L 259.453125 762.394531 L 272.910156 737.46875 L 273.324219 744.898438 Z M 272.167969 748.199219 " fill-opacity="1" fill-rule="nonzero"/><path fill="#231f20" d="M 339.625 699.917969 C 339.046875 699.425781 338.222656 699.425781 337.5625 699.835938 L 306.433594 719.148438 C 305.9375 719.480469 305.609375 720.054688 305.609375 720.632812 L 305.359375 752.574219 C 305.359375 753.316406 305.773438 753.976562 306.515625 754.222656 C 306.679688 754.304688 306.929688 754.304688 307.175781 754.304688 C 307.671875 754.304688 308.167969 754.058594 308.496094 753.730469 L 331.371094 727.566406 C 331.535156 727.402344 331.617188 727.152344 331.699219 726.988281 L 340.203125 701.898438 C 340.453125 701.238281 340.203125 700.414062 339.625 699.917969 Z M 309.160156 721.625 L 309.488281 721.375 L 327.902344 726.082031 L 308.910156 747.785156 Z M 328.230469 725.75 L 325.921875 725.171875 L 310.066406 721.128906 L 335.25 705.53125 L 328.398438 725.585938 Z M 328.230469 725.75 " fill-opacity="1" fill-rule="nonzero"/></svg>